{
  "accessors": [
    {
      "bufferView": 2,
      "componentType": 5126,
      "count": 1058,
      "max": [
        0.420166015625,
        0.2551823854446411,
        0.2111072540283203
      ],
      "min": [
        -0.39377593994140625,
        -0.2508918046951294,
        -0.30072450637817383
      ],
      "type": "VEC3"
    },
    {
      "bufferView": 2,
      "byteOffset": 12696,
      "componentType": 5126,
      "count": 1058,
      "max": [
        0.9848077297210693,
        0.9998666048049927,
        1.0
      ],
      "min": [
        -0.9848077297210693,
        -0.9998897314071655,
        -1.0
      ],
      "type": "VEC3"
    },
    {
      "bufferView": 1,
      "componentType": 5126,
      "count": 1058,
      "max": [
        0.0,
        0.0
      ],
      "min": [
        0.0,
        0.0
      ],
      "type": "VEC2"
    },
    {
      "bufferView": 0,
      "componentType": 5125,
      "count": 5904,
      "type": "SCALAR"
    },
    {
      "bufferView": 2,
      "byteOffset": 25392,
      "componentType": 5126,
      "count": 550,
      "max": [
        0.16779401898384094,
        0.167799174785614,
        0.09424376487731934
      ],
      "min": [
        -0.16779375076293945,
        -0.1677885204553604,
        -0.07067131996154785
      ],
      "type": "VEC3"
    },
    {
      "bufferView": 2,
      "byteOffset": 31992,
      "componentType": 5126,
      "count": 550,
      "max": [
        0.9848668575286865,
        0.9848666787147522,
        1.0
      ],
      "min": [
        -0.984866738319397,
        -0.984866738319397,
        -1.0
      ],
      "type": "VEC3"
    },
    {
      "bufferView": 1,
      "byteOffset": 8464,
      "componentType": 5126,
      "count": 550,
      "max": [
        1.0,
        1.0
      ],
      "min": [
        0.0,
        0.0
      ],
      "type": "VEC2"
    },
    {
      "bufferView": 0,
      "byteOffset": 23616,
      "componentType": 5125,
      "count": 2682,
      "type": "SCALAR"
    }
  ],
  "asset": {
    "extras": {
      "author": "ApprenticeRaccoon (https://sketchfab.com/ApprenticeRaccoon)",
      "license": "CC-BY-4.0 (http://creativecommons.org/licenses/by/4.0/)",
      "source": "https://sketchfab.com/3d-models/tea-pot-a0197ff303f84bbab6157812b3e5ce21",
      "title": "Tea pot"
    },
    "generator": "Sketchfab-15.30.0",
    "version": "2.0"
  },
  "bufferViews": [
    {
      "buffer": 0,
      "byteLength": 34344,
      "name": "floatBufferViews",
      "target": 34963
    },
    {
      "buffer": 0,
      "byteLength": 12864,
      "byteOffset": 34344,
      "byteStride": 8,
      "name": "floatBufferViews",
      "target": 34962
    },
    {
      "buffer": 0,
      "byteLength": 38592,
      "byteOffset": 47208,
      "byteStride": 12,
      "name": "floatBufferViews",
      "target": 34962
    }
  ],
  "buffers": [
    {
      "byteLength": 85800,
      "uri": "scene.bin"
    }
  ],
  "materials": [
    {
      "doubleSided": true,
      "name": "Porcelain",
      "pbrMetallicRoughness": {
        "baseColorFactor": [
          0.854979,
          0.829255,
          0.715223,
          1.0
        ],
        "metallicFactor": 0.0,
        "roughnessFactor": 0.19352439931245502
      }
    }
  ],
  "meshes": [
    {
      "name": "Teapot_Porcelain_0",
      "primitives": [
        {
          "attributes": {
            "NORMAL": 1,
            "POSITION": 0,
            "TEXCOORD_0": 2
          },
          "indices": 3,
          "material": 0,
          "mode": 4
        }
      ]
    },
    {
      "name": "Lid_Teapot_Porcelain_0",
      "primitives": [
        {
          "attributes": {
            "NORMAL": 5,
            "POSITION": 4,
            "TEXCOORD_0": 6
          },
          "indices": 7,
          "material": 0,
          "mode": 4
        }
      ]
    }
  ],
  "nodes": [
    {
      "children": [
        1
      ],
      "matrix": [
        1.0,
        0.0,
        0.0,
        0.0,
        0.0,
        2.220446049250313e-16,
        -1.0,
        0.0,
        0.0,
        1.0,
        2.220446049250313e-16,
        0.0,
        0.0,
        0.0,
        0.0,
        1.0
      ],
      "name": "Sketchfab_model"
    },
    {
      "children": [
        2
      ],
      "matrix": [
        0.009999999776482582,
        0.0,
        0.0,
        0.0,
        0.0,
        0.0,
        0.009999999776482582,
        0.0,
        0.0,
        -0.009999999776482582,
        0.0,
        0.0,
        0.0,
        0.0,
        0.0,
        1.0
      ],
      "name": "Tea-pot_fbx.fbx"
    },
    {
      "children": [
        3
      ],
      "name": "RootNode"
    },
    {
      "children": [
        4,
        5
      ],
      "matrix": [
        100.0,
        0.0,
        0.0,
        0.0,
        -0.0,
        -1.629206793918314e-05,
        -99.99999999999868,
        0.0,
        0.0,
        99.99999999999868,
        -1.629206793918314e-05,
        0.0,
        -6.091965198516846,
        30.07245635986328,
        -0.6043258905410767,
        1.0
      ],
      "name": "Teapot"
    },
    {
      "mesh": 0,
      "name": "Teapot_Porcelain_0"
    },
    {
      "children": [
        6
      ],
      "matrix": [
        1.0,
        0.0,
        0.0,
        0.0,
        0.0,
        1.0,
        -2.646977960169688e-23,
        0.0,
        0.0,
        2.646977960169688e-23,
        1.0,
        0.0,
        0.06132734566926956,
        0.0021402202546596527,
        0.2817785143852234,
        1.0
      ],
      "name": "Lid_Teapot"
    },
    {
      "mesh": 1,
      "name": "Lid_Teapot_Porcelain_0"
    }
  ],
  "scene": 0,
  "scenes": [
    {
      "name": "Sketchfab_Scene",
      "nodes": [
        0
      ]
    }
  ]
}
