{
  "accessors": [
    {
      "bufferView": 3,
      "componentType": 5126,
      "count": 2157,
      "max": [
        6.315653324127197,
        18.125591278076172,
        2.83864426612854
      ],
      "min": [
        -6.315653324127197,
        0.03259889781475067,
        -2.7470405101776123
      ],
      "type": "VEC3"
    },
    {
      "bufferView": 3,
      "byteOffset": 25884,
      "componentType": 5126,
      "count": 2157,
      "max": [
        0.9991617798805237,
        0.9999896883964539,
        0.9999791383743286
      ],
      "min": [
        -0.9991620182991028,
        -1.0,
        -0.9986280798912048
      ],
      "type": "VEC3"
    },
    {
      "bufferView": 2,
      "componentType": 5126,
      "count": 2157,
      "max": [
        1.0000203847885132,
        0.9980868101119995
      ],
      "min": [
        0.0019128399435430765,
        0.0033764243125915527
      ],
      "type": "VEC2"
    },
    {
      "bufferView": 2,
      "byteOffset": 17256,
      "componentType": 5126,
      "count": 2157,
      "max": [
        0.0,
        1.0
      ],
      "min": [
        0.0,
        1.0
      ],
      "type": "VEC2"
    },
    {
      "bufferView": 2,
      "byteOffset": 34512,
      "componentType": 5126,
      "count": 2157,
      "max": [
        1.0,
        0.0
      ],
      "min": [
        1.0,
        0.0
      ],
      "type": "VEC2"
    },
    {
      "bufferView": 2,
      "byteOffset": 51768,
      "componentType": 5126,
      "count": 2157,
      "max": [
        0.9957787990570068,
        1.9974682331085205
      ],
      "min": [
        -0.9957787990570068,
        1.043081283569336e-05
      ],
      "type": "VEC2"
    },
    {
      "bufferView": 2,
      "byteOffset": 69024,
      "componentType": 5126,
      "count": 2157,
      "max": [
        1.0,
        0.0
      ],
      "min": [
        1.0,
        0.0
      ],
      "type": "VEC2"
    },
    {
      "bufferView": 2,
      "byteOffset": 86280,
      "componentType": 5126,
      "count": 2157,
      "max": [
        0.9999790191650391,
        2.0
      ],
      "min": [
        -0.9995514154434204,
        0.0
      ],
      "type": "VEC2"
    },
    {
      "bufferView": 1,
      "componentType": 5125,
      "count": 8826,
      "type": "SCALAR"
    },
    {
      "bufferView": 5,
      "componentType": 5126,
      "count": 127,
      "max": [
        100.0,
        0.0,
        0.0,
        0.0,
        0.0,
        100.0,
        0.0,
        0.0,
        0.0,
        0.0,
        100.0,
        0.0,
        5.73324728012085,
        0.0009709596633911133,
        1.8476557731628418,
        1.0
      ],
      "min": [
        1.0,
        0.0,
        0.0,
        0.0,
        0.0,
        1.0,
        0.0,
        0.0,
        0.0,
        0.0,
        1.0,
        0.0,
        -5.733245372772217,
        -15.135639190673828,
        -1.2248045206069946,
        1.0
      ],
      "type": "MAT4"
    },
    {
      "bufferView": 0,
      "componentType": 5123,
      "count": 2157,
      "type": "VEC4"
    },
    {
      "bufferView": 4,
      "componentType": 5126,
      "count": 2157,
      "max": [
        1.0,
        0.5,
        0.31918734312057495,
        0.25
      ],
      "min": [
        0.25,
        0.0,
        0.0,
        0.0
      ],
      "type": "VEC4"
    }
  ],
  "asset": {
    "extras": {
      "author": "ThisIsntAPerson (https://sketchfab.com/ThisIsntAPerson)",
      "license": "CC-BY-4.0 (http://creativecommons.org/licenses/by/4.0/)",
      "source": "https://sketchfab.com/3d-models/march-hare-bb459647c19245cc83377bbc8ce5203b",
      "title": "March Hare"
    },
    "generator": "Sketchfab-16.56.0",
    "version": "2.0"
  },
  "bufferViews": [
    {
      "buffer": 0,
      "byteLength": 17256,
      "byteStride": 8,
      "name": "shortBufferViews",
      "target": 34962
    },
    {
      "buffer": 0,
      "byteLength": 35304,
      "byteOffset": 17256,
      "name": "floatBufferViews",
      "target": 34963
    },
    {
      "buffer": 0,
      "byteLength": 103536,
      "byteOffset": 52560,
      "byteStride": 8,
      "name": "floatBufferViews",
      "target": 34962
    },
    {
      "buffer": 0,
      "byteLength": 51768,
      "byteOffset": 156096,
      "byteStride": 12,
      "name": "floatBufferViews",
      "target": 34962
    },
    {
      "buffer": 0,
      "byteLength": 34512,
      "byteOffset": 207864,
      "byteStride": 16,
      "name": "floatBufferViews",
      "target": 34962
    },
    {
      "buffer": 0,
      "byteLength": 8128,
      "byteOffset": 242376,
      "name": "floatBufferViews"
    }
  ],
  "buffers": [
    {
      "byteLength": 250504,
      "uri": "scene.bin"
    }
  ],
  "extensionsUsed": [
    "KHR_materials_unlit"
  ],
  "images": [
    {
      "uri": "textures/march_hare_mat_baseColor.jpeg"
    }
  ],
  "materials": [
    {
      "doubleSided": true,
      "extensions": {
        "KHR_materials_unlit": {}
      },
      "name": "march_hare_mat",
      "pbrMetallicRoughness": {
        "baseColorTexture": {
          "index": 0
        },
        "metallicFactor": 0.0
      }
    }
  ],
  "meshes": [
    {
      "name": "March Hare_mesh_march_hare_mat_0",
      "primitives": [
        {
          "attributes": {
            "JOINTS_0": 10,
            "NORMAL": 1,
            "POSITION": 0,
            "TEXCOORD_0": 2,
            "TEXCOORD_1": 3,
            "TEXCOORD_2": 4,
            "TEXCOORD_3": 5,
            "TEXCOORD_4": 6,
            "TEXCOORD_5": 7,
            "WEIGHTS_0": 11
          },
          "indices": 8,
          "material": 0,
          "mode": 4
        }
      ]
    }
  ],
  "nodes": [
    {
      "children": [
        1
      ],
      "matrix": [
        1.0,
        0.0,
        0.0,
        0.0,
        0.0,
        2.220446049250313e-16,
        -1.0,
        0.0,
        0.0,
        1.0,
        2.220446049250313e-16,
        0.0,
        0.0,
        0.0,
        0.0,
        1.0
      ],
      "name": "Sketchfab_model"
    },
    {
      "children": [
        2
      ],
      "matrix": [
        0.009999999776482582,
        0.0,
        0.0,
        0.0,
        0.0,
        0.0,
        0.009999999776482582,
        0.0,
        0.0,
        -0.009999999776482582,
        0.0,
        0.0,
        0.0,
        0.0,
        0.0,
        1.0
      ],
      "name": "591a946865bb4fc498e309430f6cf833.fbx"
    },
    {
      "children": [
        3
      ],
      "name": "RootNode"
    },
    {
      "children": [
        4
      ],
      "matrix": [
        100.0,
        0.0,
        0.0,
        0.0,
        0.0,
        -1.629206793918314e-05,
        -99.99999999999868,
        0.0,
        0.0,
        99.99999999999868,
        -1.629206793918314e-05,
        0.0,
        0.0,
        0.0,
        0.0,
        1.0
      ],
      "name": "March Hare_arm"
    },
    {
      "children": [
        5,
        133,
        132
      ],
      "name": "Object_4"
    },
    {
      "children": [
        6
      ],
      "name": "_rootJoint"
    },
    {
      "children": [
        7
      ],
      "name": "Bip001_Pelvis_01",
      "rotation": [
        0.7071068286895752,
        0.0,
        0.0,
        0.7071067094802856
      ],
      "translation": [
        2.4557007094472283e-08,
        0.3081442415714264,
        3.2594504356384277
      ]
    },
    {
      "children": [
        8,
        112,
        117,
        122,
        124,
        126,
        128,
        130
      ],
      "name": "Bip001_Spine_02",
      "translation": [
        -3.521162028619074e-08,
        0.7410159111022949,
        -0.0007337033748626709
      ]
    },
    {
      "children": [
        9
      ],
      "name": "Bip001_Spine1_03",
      "translation": [
        -2.052688685694193e-09,
        0.9216523170471191,
        5.960464477539063e-08
      ]
    },
    {
      "children": [
        10,
        104,
        106,
        108,
        110
      ],
      "name": "Bip001_Spine2_04",
      "translation": [
        -2.0526131905285183e-09,
        0.9216518402099609,
        5.960464477539063e-08
      ]
    },
    {
      "children": [
        11,
        78,
        91
      ],
      "name": "Bip001_Neck_05",
      "translation": [
        -3.0926097238648254e-09,
        1.3716363906860352,
        -4.655122756958008e-05
      ]
    },
    {
      "children": [
        12,
        17,
        19,
        21,
        25,
        27,
        29,
        31,
        33,
        35,
        37,
        39,
        41,
        56,
        58,
        60,
        64,
        66,
        68,
        70,
        72,
        74,
        76
      ],
      "name": "Bip001_Head_06",
      "translation": [
        6.709690865136508e-07,
        1.1353154182434082,
        -0.16031616926193237
      ]
    },
    {
      "children": [
        13,
        15
      ],
      "name": "Bip001_jaw_07",
      "translation": [
        -5.074567525298335e-06,
        0.377197265625,
        0.2661830186843872
      ]
    },
    {
      "children": [
        14
      ],
      "name": "Bip001_L_LipBot_08",
      "translation": [
        0.4312627613544464,
        0.2823619842529297,
        0.7769298553466797
      ]
    },
    {
      "name": "Bip001_L_LipBot_end_080",
      "translation": [
        0.0,
        1.0,
        0.0
      ]
    },
    {
      "children": [
        16
      ],
      "name": "Bip001_R_LipBot_09",
      "translation": [
        -0.43126025795936584,
        0.2823629379272461,
        0.7769303321838379
      ]
    },
    {
      "name": "Bip001_R_LipBot_end_081",
      "translation": [
        0.0,
        1.0,
        0.0
      ]
    },
    {
      "children": [
        18
      ],
      "name": "Bip001_L_Cheek_010",
      "translation": [
        1.055368185043335,
        1.1703758239746094,
        0.31290820240974426
      ]
    },
    {
      "name": "Bip001_L_Cheek_end_082",
      "translation": [
        0.0,
        1.0,
        0.0
      ]
    },
    {
      "children": [
        20
      ],
      "name": "Bip001_L_CheekHair_011",
      "translation": [
        1.2691959142684937,
        1.3297576904296875,
        -0.3878710865974426
      ]
    },
    {
      "name": "Bip001_L_CheekHair_end_083",
      "translation": [
        0.0,
        1.0,
        0.0
      ]
    },
    {
      "children": [
        22
      ],
      "name": "Bip001_L_Ear_012",
      "translation": [
        0.4597395956516266,
        2.601008415222168,
        -0.7519028186798096
      ]
    },
    {
      "children": [
        23
      ],
      "name": "Bip001_L_Ear02_013",
      "translation": [
        0.31831005215644836,
        2.0940303802490234,
        -0.3783700466156006
      ]
    },
    {
      "children": [
        24
      ],
      "name": "Bip001_L_Ear03_014",
      "translation": [
        0.4484078884124756,
        2.0898780822753906,
        -0.24814236164093018
      ]
    },
    {
      "name": "Bip001_L_Ear03_end_084",
      "translation": [
        0.0,
        1.0,
        0.0
      ]
    },
    {
      "children": [
        26
      ],
      "name": "Bip001_L_Eye_015",
      "translation": [
        0.4445512592792511,
        2.11673641204834,
        0.6757517457008362
      ]
    },
    {
      "name": "Bip001_L_Eye_end_085",
      "translation": [
        0.0,
        1.0,
        0.0
      ]
    },
    {
      "children": [
        28
      ],
      "name": "Bip001_L_Eyebrow1_016",
      "translation": [
        0.13111893832683563,
        2.8027639389038086,
        0.734963595867157
      ]
    },
    {
      "name": "Bip001_L_Eyebrow1_end_086",
      "translation": [
        0.0,
        1.0,
        0.0
      ]
    },
    {
      "children": [
        30
      ],
      "name": "Bip001_L_Eyebrow2_017",
      "translation": [
        0.4222097396850586,
        2.9096240997314453,
        0.7174301743507385
      ]
    },
    {
      "name": "Bip001_L_Eyebrow2_end_087",
      "translation": [
        0.0,
        1.0,
        0.0
      ]
    },
    {
      "children": [
        32
      ],
      "name": "Bip001_L_Eyebrow3_018",
      "translation": [
        0.6895503997802734,
        2.8140993118286133,
        0.6003623604774475
      ]
    },
    {
      "name": "Bip001_L_Eyebrow3_end_088",
      "translation": [
        0.0,
        1.0,
        0.0
      ]
    },
    {
      "children": [
        34
      ],
      "name": "Bip001_L_EyelidBot_019",
      "translation": [
        0.23140980303287506,
        1.9288482666015625,
        -0.10982978343963623
      ]
    },
    {
      "name": "Bip001_L_EyelidBot_end_089",
      "translation": [
        0.0,
        1.0,
        0.0
      ]
    },
    {
      "children": [
        36
      ],
      "name": "Bip001_L_EyelidTop_020",
      "translation": [
        0.1958104521036148,
        1.928802490234375,
        -0.10968124866485596
      ]
    },
    {
      "name": "Bip001_L_EyelidTop_end_090",
      "translation": [
        0.0,
        1.0,
        0.0
      ]
    },
    {
      "children": [
        38
      ],
      "name": "Bip001_L_Hair_021",
      "translation": [
        0.3412984609603882,
        3.920408248901367,
        -0.15109461545944214
      ]
    },
    {
      "name": "Bip001_L_Hair_end_091",
      "translation": [
        0.0,
        1.0,
        0.0
      ]
    },
    {
      "children": [
        40
      ],
      "name": "Bip001_M_Hair_022",
      "translation": [
        -9.549763490213081e-06,
        3.883114814758301,
        -0.07805895805358887
      ]
    },
    {
      "name": "Bip001_M_Hair_end_092",
      "translation": [
        0.0,
        1.0,
        0.0
      ]
    },
    {
      "children": [
        42,
        44,
        46,
        48,
        50,
        52,
        54
      ],
      "name": "Bip001_Mouth_023",
      "translation": [
        -7.756943887216039e-08,
        1.4861431121826172,
        1.0355209112167358
      ]
    },
    {
      "children": [
        43
      ],
      "name": "Bip001_L_LipCorner_024",
      "translation": [
        0.8566394448280334,
        -0.48061656951904297,
        -0.08001115918159485
      ]
    },
    {
      "name": "Bip001_L_LipCorner_end_093",
      "translation": [
        0.0,
        1.0,
        0.0
      ]
    },
    {
      "children": [
        45
      ],
      "name": "Bip001_L_LipTop1_025",
      "translation": [
        0.30031904578208923,
        -0.6974658966064453,
        0.6585235595703125
      ]
    },
    {
      "name": "Bip001_L_LipTop1_end_094",
      "translation": [
        0.0,
        1.0,
        0.0
      ]
    },
    {
      "children": [
        47
      ],
      "name": "Bip001_L_LipTop2_026",
      "translation": [
        0.6662887930870056,
        -0.6445398330688477,
        0.4373133182525635
      ]
    },
    {
      "name": "Bip001_L_LipTop2_end_095",
      "translation": [
        0.0,
        1.0,
        0.0
      ]
    },
    {
      "children": [
        49
      ],
      "name": "Bip001_nose_027",
      "translation": [
        2.287878828610701e-07,
        0.3171215057373047,
        0.6007301807403564
      ]
    },
    {
      "name": "Bip001_nose_end_096",
      "translation": [
        0.0,
        1.0,
        0.0
      ]
    },
    {
      "children": [
        51
      ],
      "name": "Bip001_R_LipCorner_028",
      "translation": [
        -0.8566363453865051,
        -0.4806175231933594,
        -0.08000892400741577
      ]
    },
    {
      "name": "Bip001_R_LipCorner_end_097",
      "translation": [
        0.0,
        1.0,
        0.0
      ]
    },
    {
      "children": [
        53
      ],
      "name": "Bip001_R_LipTop1_029",
      "translation": [
        -0.30031415820121765,
        -0.6974658966064453,
        0.6585241556167603
      ]
    },
    {
      "name": "Bip001_R_LipTop1_end_098",
      "translation": [
        0.0,
        1.0,
        0.0
      ]
    },
    {
      "children": [
        55
      ],
      "name": "Bip001_R_LipTop2_030",
      "translation": [
        -0.6662846207618713,
        -0.6445379257202148,
        0.43731558322906494
      ]
    },
    {
      "name": "Bip001_R_LipTop2_end_099",
      "translation": [
        0.0,
        1.0,
        0.0
      ]
    },
    {
      "children": [
        57
      ],
      "name": "Bip001_R_Cheek_031",
      "translation": [
        -1.0553672313690186,
        1.1703767776489258,
        0.3129110634326935
      ]
    },
    {
      "name": "Bip001_R_Cheek_end_0100",
      "translation": [
        0.0,
        1.0,
        0.0
      ]
    },
    {
      "children": [
        59
      ],
      "name": "Bip001_R_CheekHair_032",
      "translation": [
        -1.26919686794281,
        1.3297576904296875,
        -0.38786768913269043
      ]
    },
    {
      "name": "Bip001_R_CheekHair_end_0101",
      "translation": [
        0.0,
        1.0,
        0.0
      ]
    },
    {
      "children": [
        61
      ],
      "name": "Bip001_R_Ear_033",
      "translation": [
        -0.4597415626049042,
        2.6010055541992188,
        -0.751901388168335
      ]
    },
    {
      "children": [
        62
      ],
      "name": "Bip001_R_Ear02_034",
      "translation": [
        -0.3183111250400543,
        2.0940332412719727,
        -0.37836968898773193
      ]
    },
    {
      "children": [
        63
      ],
      "name": "Bip001_R_Ear03_035",
      "translation": [
        -0.4484085440635681,
        2.089879035949707,
        -0.24814105033874512
      ]
    },
    {
      "name": "Bip001_R_Ear03_end_0102",
      "translation": [
        0.0,
        0.9999990463256836,
        0.0
      ]
    },
    {
      "children": [
        65
      ],
      "name": "Bip001_R_Eye_036",
      "translation": [
        -0.44454947113990784,
        2.11673641204834,
        0.6757529973983765
      ]
    },
    {
      "name": "Bip001_R_Eye_end_0103",
      "translation": [
        0.0,
        1.0,
        0.0
      ]
    },
    {
      "children": [
        67
      ],
      "name": "Bip001_R_Eyebrow1_037",
      "translation": [
        -0.13111700117588043,
        2.802762985229492,
        0.7349639534950256
      ]
    },
    {
      "name": "Bip001_R_Eyebrow1_end_0104",
      "translation": [
        0.0,
        1.0,
        0.0
      ]
    },
    {
      "children": [
        69
      ],
      "name": "Bip001_R_Eyebrow2_038",
      "translation": [
        -0.42220768332481384,
        2.9096240997314453,
        0.7174313068389893
      ]
    },
    {
      "name": "Bip001_R_Eyebrow2_end_0105",
      "translation": [
        0.0,
        1.0,
        0.0
      ]
    },
    {
      "children": [
        71
      ],
      "name": "Bip001_R_Eyebrow3_039",
      "translation": [
        -0.6895490288734436,
        2.8141002655029297,
        0.6003644466400146
      ]
    },
    {
      "name": "Bip001_R_Eyebrow3_end_0106",
      "translation": [
        0.0,
        1.0,
        0.0
      ]
    },
    {
      "children": [
        73
      ],
      "name": "Bip001_R_EyelidBot_040",
      "translation": [
        -0.2314101606607437,
        1.928849220275879,
        -0.10982918739318848
      ]
    },
    {
      "name": "Bip001_R_EyelidBot_end_0107",
      "translation": [
        0.0,
        1.0,
        0.0
      ]
    },
    {
      "children": [
        75
      ],
      "name": "Bip001_R_EyelidTop_041",
      "translation": [
        -0.1958106905221939,
        1.928802490234375,
        -0.10968077182769775
      ]
    },
    {
      "name": "Bip001_R_EyelidTop_end_0108",
      "translation": [
        0.0,
        1.0,
        0.0
      ]
    },
    {
      "children": [
        77
      ],
      "name": "Bip001_R_Hair_042",
      "translation": [
        -0.34130004048347473,
        3.9204111099243164,
        -0.15109366178512573
      ]
    },
    {
      "name": "Bip001_R_Hair_end_0109",
      "translation": [
        0.0,
        1.0,
        0.0
      ]
    },
    {
      "children": [
        79
      ],
      "name": "Bip001_L_Clavicle_043",
      "translation": [
        0.18454262614250183,
        -0.4499845504760742,
        0.0007804036140441895
      ]
    },
    {
      "children": [
        80
      ],
      "name": "Bip001_L_UpperArm_044",
      "translation": [
        0.8181557059288025,
        -0.16483545303344727,
        -0.07170185446739197
      ]
    },
    {
      "children": [
        81
      ],
      "name": "Bip001_L_Forearm_045",
      "translation": [
        1.4397622346878052,
        -0.3105788230895996,
        -0.08423659205436707
      ]
    },
    {
      "children": [
        82,
        85,
        88
      ],
      "name": "Bip001_L_Hand_046",
      "translation": [
        1.93880033493042,
        -0.4054422378540039,
        0.13335397839546204
      ]
    },
    {
      "children": [
        83
      ],
      "name": "Bip001_L_Finger0_047",
      "translation": [
        0.46866416931152344,
        -0.24920892715454102,
        0.37775683403015137
      ]
    },
    {
      "children": [
        84
      ],
      "name": "Bip001_L_Finger01_048",
      "translation": [
        0.06143999099731445,
        -0.28641319274902344,
        0.3605473041534424
      ]
    },
    {
      "name": "Bip001_L_Finger01_end_0110",
      "translation": [
        0.0,
        1.0,
        0.0
      ]
    },
    {
      "children": [
        86
      ],
      "name": "Bip001_L_Finger1_049",
      "translation": [
        0.8749456405639648,
        -0.21358633041381836,
        0.2784673571586609
      ]
    },
    {
      "children": [
        87
      ],
      "name": "Bip001_L_Finger11_050",
      "translation": [
        0.45914649963378906,
        -0.1992020606994629,
        0.11356982588768005
      ]
    },
    {
      "name": "Bip001_L_Finger11_end_0111",
      "translation": [
        0.0,
        1.0,
        0.0
      ]
    },
    {
      "children": [
        89
      ],
      "name": "Bip001_L_Finger2_051",
      "translation": [
        0.9051547050476074,
        -0.26821088790893555,
        -0.23051151633262634
      ]
    },
    {
      "children": [
        90
      ],
      "name": "Bip001_L_Finger21_052",
      "translation": [
        0.44682979583740234,
        -0.17776823043823242,
        -0.02837061882019043
      ]
    },
    {
      "name": "Bip001_L_Finger21_end_0112",
      "translation": [
        0.0,
        1.0,
        0.0
      ]
    },
    {
      "children": [
        92
      ],
      "name": "Bip001_R_Clavicle_053",
      "translation": [
        -0.184542715549469,
        -0.4499835968017578,
        0.0007808804512023926
      ]
    },
    {
      "children": [
        93
      ],
      "name": "Bip001_R_UpperArm_054",
      "translation": [
        -0.818155825138092,
        -0.16483592987060547,
        -0.07169961929321289
      ]
    },
    {
      "children": [
        94
      ],
      "name": "Bip001_R_Forearm_055",
      "translation": [
        -1.4397631883621216,
        -0.3105783462524414,
        -0.08423253893852234
      ]
    },
    {
      "children": [
        95,
        98,
        101
      ],
      "name": "Bip001_R_Hand_056",
      "translation": [
        -1.9387991428375244,
        -0.4054431915283203,
        0.1333593726158142
      ]
    },
    {
      "children": [
        96
      ],
      "name": "Bip001_R_Finger0_057",
      "translation": [
        -0.46866321563720703,
        -0.24920988082885742,
        0.37775787711143494
      ]
    },
    {
      "children": [
        97
      ],
      "name": "Bip001_R_Finger01_058",
      "translation": [
        -0.06143999099731445,
        -0.2864112854003906,
        0.3605479598045349
      ]
    },
    {
      "name": "Bip001_R_Finger01_end_0113",
      "translation": [
        0.0,
        1.0,
        0.0
      ]
    },
    {
      "children": [
        99
      ],
      "name": "Bip001_R_Finger1_059",
      "translation": [
        -0.8749451637268066,
        -0.21358680725097656,
        0.27846959233283997
      ]
    },
    {
      "children": [
        100
      ],
      "name": "Bip001_R_Finger11_060",
      "translation": [
        -0.45914649963378906,
        -0.19920110702514648,
        0.11357112228870392
      ]
    },
    {
      "name": "Bip001_R_Finger11_end_0114",
      "translation": [
        0.0,
        1.0,
        0.0
      ]
    },
    {
      "children": [
        102
      ],
      "name": "Bip001_R_Finger2_061",
      "translation": [
        -0.9051556587219238,
        -0.26821136474609375,
        -0.23050925135612488
      ]
    },
    {
      "children": [
        103
      ],
      "name": "Bip001_R_Finger21_062",
      "translation": [
        -0.44683027267456055,
        -0.17776823043823242,
        -0.02836930751800537
      ]
    },
    {
      "name": "Bip001_R_Finger21_end_0115",
      "translation": [
        0.0,
        1.0,
        0.0
      ]
    },
    {
      "children": [
        105
      ],
      "name": "Bip001_XL_Collar_063",
      "translation": [
        0.36353692412376404,
        1.560387134552002,
        -0.061177074909210205
      ]
    },
    {
      "name": "Bip001_XL_Collar_end_0116",
      "translation": [
        0.0,
        1.0,
        0.0
      ]
    },
    {
      "children": [
        107
      ],
      "name": "Bip001_XL_Tie_064",
      "translation": [
        0.16580475866794586,
        1.1708741188049316,
        0.6208695769309998
      ]
    },
    {
      "name": "Bip001_XL_Tie_end_0117",
      "translation": [
        0.0,
        1.0,
        0.0
      ]
    },
    {
      "children": [
        109
      ],
      "name": "Bip001_XR_Collar_065",
      "translation": [
        -0.36353757977485657,
        1.5603880882263184,
        -0.0611761212348938
      ]
    },
    {
      "name": "Bip001_XR_Collar_end_0118",
      "translation": [
        0.0,
        1.0,
        0.0
      ]
    },
    {
      "children": [
        111
      ],
      "name": "Bip001_XR_Tie_066",
      "translation": [
        -0.1658029705286026,
        1.1708741188049316,
        0.620870053768158
      ]
    },
    {
      "name": "Bip001_XR_Tie_end_0119",
      "translation": [
        0.0,
        1.0,
        0.0
      ]
    },
    {
      "children": [
        113
      ],
      "name": "Bip001_L_Thigh_067",
      "translation": [
        0.6443612575531006,
        -0.7410163879394531,
        0.0007329881191253662
      ]
    },
    {
      "children": [
        114
      ],
      "name": "Bip001_L_Calf_068",
      "translation": [
        0.017193078994750977,
        -1.3503921031951904,
        0.04149964451789856
      ]
    },
    {
      "children": [
        115
      ],
      "name": "Bip001_L_Foot_069",
      "translation": [
        -0.0010817646980285645,
        -1.1149013042449951,
        0.0062055885791778564
      ]
    },
    {
      "children": [
        116
      ],
      "name": "Bip001_L_Toe0_070",
      "translation": [
        0.7107427716255188,
        -0.7951275110244751,
        1.3544031381607056
      ]
    },
    {
      "name": "Bip001_L_Toe0_end_0120",
      "translation": [
        0.0,
        1.0,
        0.0
      ]
    },
    {
      "children": [
        118
      ],
      "name": "Bip001_R_Thigh_071",
      "translation": [
        -0.6443612575531006,
        -0.7410159111022949,
        0.0007347166538238525
      ]
    },
    {
      "children": [
        119
      ],
      "name": "Bip001_R_Calf_072",
      "translation": [
        -0.017193257808685303,
        -1.3503925800323486,
        0.04149967432022095
      ]
    },
    {
      "children": [
        120
      ],
      "name": "Bip001_R_Foot_073",
      "translation": [
        0.0010815858840942383,
        -1.1149013042449951,
        0.006205648183822632
      ]
    },
    {
      "children": [
        121
      ],
      "name": "Bip001_R_Toe0_074",
      "translation": [
        -0.7107390761375427,
        -0.795127272605896,
        1.3544049263000488
      ]
    },
    {
      "name": "Bip001_R_Toe0_end_0121",
      "translation": [
        0.0,
        1.0,
        0.0
      ]
    },
    {
      "children": [
        123
      ],
      "name": "Bip001_xTail_075",
      "translation": [
        -3.120189603578183e-06,
        -0.14014506340026855,
        -1.3580206632614136
      ]
    },
    {
      "name": "Bip001_xTail_end_0122",
      "translation": [
        0.0,
        0.9999997615814209,
        0.0
      ]
    },
    {
      "children": [
        125
      ],
      "name": "Bip001_xJacket_R_076",
      "translation": [
        -0.8774413466453552,
        0.6137537956237793,
        -1.0519623756408691
      ]
    },
    {
      "name": "Bip001_xJacket_R_end_0123",
      "translation": [
        0.0,
        1.0,
        0.0
      ]
    },
    {
      "children": [
        127
      ],
      "name": "Bip001_xJacket_L_077",
      "translation": [
        0.8774383068084717,
        0.6137537956237793,
        -1.051964521408081
      ]
    },
    {
      "name": "Bip001_xJacket_L_end_0124",
      "translation": [
        0.0,
        1.0,
        0.0
      ]
    },
    {
      "children": [
        129
      ],
      "name": "Bip001_XR_Shirt_078",
      "translation": [
        -1.2130504846572876,
        0.7922511100769043,
        0.7657996416091919
      ]
    },
    {
      "name": "Bip001_XR_Shirt_end_0125",
      "translation": [
        0.0,
        1.0,
        0.0
      ]
    },
    {
      "children": [
        131
      ],
      "name": "Bip001_XL_Shirt_079",
      "translation": [
        1.2986690998077393,
        0.8207855224609375,
        0.8005634546279907
      ]
    },
    {
      "name": "Bip001_XL_Shirt_end_00",
      "translation": [
        0.0,
        1.0,
        0.0
      ]
    },
    {
      "matrix": [
        100.0,
        0.0,
        0.0,
        0.0,
        0.0,
        6.123233995736766e-15,
        -100.0,
        0.0,
        0.0,
        100.0,
        6.123233995736766e-15,
        0.0,
        1.9184653865522705e-13,
        -5.7220458984375e-06,
        -3.5762786865234375e-07,
        1.0
      ],
      "name": "Object_132"
    },
    {
      "mesh": 0,
      "name": "Object_133",
      "skin": 0
    }
  ],
  "samplers": [
    {
      "magFilter": 9729,
      "minFilter": 9987,
      "wrapS": 10497,
      "wrapT": 10497
    }
  ],
  "scene": 0,
  "scenes": [
    {
      "name": "Sketchfab_Scene",
      "nodes": [
        0
      ]
    }
  ],
  "skins": [
    {
      "inverseBindMatrices": 9,
      "joints": [
        5,
        6,
        7,
        8,
        9,
        10,
        11,
        12,
        13,
        14,
        15,
        16,
        17,
        18,
        19,
        20,
        21,
        22,
        23,
        24,
        25,
        26,
        27,
        28,
        29,
        30,
        31,
        32,
        33,
        34,
        35,
        36,
        37,
        38,
        39,
        40,
        41,
        42,
        43,
        44,
        45,
        46,
        47,
        48,
        49,
        50,
        51,
        52,
        53,
        54,
        55,
        56,
        57,
        58,
        59,
        60,
        61,
        62,
        63,
        64,
        65,
        66,
        67,
        68,
        69,
        70,
        71,
        72,
        73,
        74,
        75,
        76,
        77,
        78,
        79,
        80,
        81,
        82,
        83,
        84,
        85,
        86,
        87,
        88,
        89,
        90,
        91,
        92,
        93,
        94,
        95,
        96,
        97,
        98,
        99,
        100,
        101,
        102,
        103,
        104,
        105,
        106,
        107,
        108,
        109,
        110,
        111,
        112,
        113,
        114,
        115,
        116,
        117,
        118,
        119,
        120,
        121,
        122,
        123,
        124,
        125,
        126,
        127,
        128,
        129,
        130,
        131
      ],
      "skeleton": 5
    }
  ],
  "textures": [
    {
      "sampler": 0,
      "source": 0
    }
  ]
}
