{
  "accessors": [
    {
      "bufferView": 2,
      "componentType": 5126,
      "count": 131,
      "max": [
        -4.731788635253906,
        3.7163338661193848,
        -2.7343945503234863
      ],
      "min": [
        -7.108003616333008,
        1.8346168994903564,
        -3.6016366481781006
      ],
      "type": "VEC3"
    },
    {
      "bufferView": 2,
      "byteOffset": 1572,
      "componentType": 5126,
      "count": 131,
      "max": [
        0.9672417044639587,
        1.0,
        0.9833434224128723
      ],
      "min": [
        -0.9226755499839783,
        -0.9999995231628418,
        -0.8978896141052246
      ],
      "type": "VEC3"
    },
    {
      "bufferView": 1,
      "componentType": 5126,
      "count": 131,
      "max": [
        0.9522203207015991,
        0.8891882300376892
      ],
      "min": [
        0.0,
        0.0
      ],
      "type": "VEC2"
    },
    {
      "bufferView": 0,
      "componentType": 5125,
      "count": 363,
      "type": "SCALAR"
    },
    {
      "bufferView": 2,
      "byteOffset": 3144,
      "componentType": 5126,
      "count": 321,
      "max": [
        7.312914848327637,
        5.456603527069092,
        0.26209962368011475
      ],
      "min": [
        0.30759763717651367,
        0.030272789299488068,
        -6.753540515899658
      ],
      "type": "VEC3"
    },
    {
      "bufferView": 2,
      "byteOffset": 6996,
      "componentType": 5126,
      "count": 321,
      "max": [
        0.9811112284660339,
        0.9852174520492554,
        0.978804886341095
      ],
      "min": [
        -0.9811360239982605,
        -0.999997079372406,
        -0.9787376523017883
      ],
      "type": "VEC3"
    },
    {
      "bufferView": 1,
      "byteOffset": 1048,
      "componentType": 5126,
      "count": 321,
      "max": [
        0.9444178342819214,
        0.7732656598091125
      ],
      "min": [
        0.0,
        0.0
      ],
      "type": "VEC2"
    },
    {
      "bufferView": 0,
      "byteOffset": 1452,
      "componentType": 5125,
      "count": 1596,
      "type": "SCALAR"
    },
    {
      "bufferView": 2,
      "byteOffset": 10848,
      "componentType": 5126,
      "count": 593,
      "max": [
        10.877762794494629,
        -0.01172797940671444,
        10.335715293884277
      ],
      "min": [
        -10.877762794494629,
        -0.48442572355270386,
        -8.522356986999512
      ],
      "type": "VEC3"
    },
    {
      "bufferView": 2,
      "byteOffset": 17964,
      "componentType": 5126,
      "count": 593,
      "max": [
        0.9701427817344666,
        1.0,
        0.9773158431053162
      ],
      "min": [
        -0.9701428413391113,
        0.21178743243217468,
        -0.9773158431053162
      ],
      "type": "VEC3"
    },
    {
      "bufferView": 1,
      "byteOffset": 3616,
      "componentType": 5126,
      "count": 593,
      "max": [
        0.9590287804603577,
        1.0
      ],
      "min": [
        0.0,
        0.0
      ],
      "type": "VEC2"
    },
    {
      "bufferView": 0,
      "byteOffset": 7836,
      "componentType": 5125,
      "count": 966,
      "type": "SCALAR"
    },
    {
      "bufferView": 2,
      "byteOffset": 25080,
      "componentType": 5126,
      "count": 326,
      "max": [
        4.346648693084717,
        2.667776346206665,
        5.809602737426758
      ],
      "min": [
        -0.874235987663269,
        0.09151847660541534,
        1.217534065246582
      ],
      "type": "VEC3"
    },
    {
      "bufferView": 2,
      "byteOffset": 28992,
      "componentType": 5126,
      "count": 326,
      "max": [
        0.9954407811164856,
        0.983295738697052,
        0.9997850656509399
      ],
      "min": [
        -0.9703383445739746,
        -0.9991220235824585,
        -0.9793277978897095
      ],
      "type": "VEC3"
    },
    {
      "bufferView": 1,
      "byteOffset": 8360,
      "componentType": 5126,
      "count": 326,
      "max": [
        1.0,
        0.9656860828399658
      ],
      "min": [
        0.0,
        0.0
      ],
      "type": "VEC2"
    },
    {
      "bufferView": 0,
      "byteOffset": 11700,
      "componentType": 5125,
      "count": 1440,
      "type": "SCALAR"
    },
    {
      "bufferView": 2,
      "byteOffset": 32904,
      "componentType": 5126,
      "count": 230,
      "max": [
        -1.8647754192352295,
        3.046886444091797,
        3.861044406890869
      ],
      "min": [
        -5.259732723236084,
        0.03786361217498779,
        0.48998701572418213
      ],
      "type": "VEC3"
    },
    {
      "bufferView": 2,
      "byteOffset": 35664,
      "componentType": 5126,
      "count": 230,
      "max": [
        0.9892862439155579,
        1.0,
        0.9826711416244507
      ],
      "min": [
        -0.9892863631248474,
        -1.0,
        -0.9826710820198059
      ],
      "type": "VEC3"
    },
    {
      "bufferView": 1,
      "byteOffset": 10968,
      "componentType": 5126,
      "count": 230,
      "max": [
        0.9934051036834717,
        0.883629322052002
      ],
      "min": [
        0.0,
        -2.054867353889328e-17
      ],
      "type": "VEC2"
    },
    {
      "bufferView": 0,
      "byteOffset": 17460,
      "componentType": 5125,
      "count": 1080,
      "type": "SCALAR"
    },
    {
      "bufferView": 2,
      "byteOffset": 38424,
      "componentType": 5126,
      "count": 99,
      "max": [
        -1.247316598892212,
        3.140554666519165,
        -1.4383009672164917
      ],
      "min": [
        -4.32438325881958,
        2.8318746089935303,
        -4.347272872924805
      ],
      "type": "VEC3"
    },
    {
      "bufferView": 2,
      "byteOffset": 39612,
      "componentType": 5126,
      "count": 99,
      "max": [
        0.9981333017349243,
        0.9986885786056519,
        0.9539322257041931
      ],
      "min": [
        -0.9986826777458191,
        -0.9996885657310486,
        -0.953986644744873
      ],
      "type": "VEC3"
    },
    {
      "bufferView": 1,
      "byteOffset": 12808,
      "componentType": 5126,
      "count": 99,
      "max": [
        0.8900720477104187,
        0.7917011976242065
      ],
      "min": [
        0.8444415926933289,
        0.0
      ],
      "type": "VEC2"
    },
    {
      "bufferView": 0,
      "byteOffset": 21780,
      "componentType": 5125,
      "count": 480,
      "type": "SCALAR"
    },
    {
      "bufferView": 2,
      "byteOffset": 40800,
      "componentType": 5126,
      "count": 214,
      "max": [
        -4.4964728355407715,
        4.010880947113037,
        1.7909839153289795
      ],
      "min": [
        -5.541224479675293,
        2.581171989440918,
        0.9559640288352966
      ],
      "type": "VEC3"
    },
    {
      "bufferView": 2,
      "byteOffset": 43368,
      "componentType": 5126,
      "count": 214,
      "max": [
        0.9732078909873962,
        0.999961793422699,
        0.9506744742393494
      ],
      "min": [
        -0.9964935183525085,
        -0.9977895021438599,
        -0.9478334188461304
      ],
      "type": "VEC3"
    },
    {
      "bufferView": 1,
      "byteOffset": 13600,
      "componentType": 5126,
      "count": 214,
      "max": [
        0.7309138774871826,
        0.04606032371520996
      ],
      "min": [
        0.0,
        0.0
      ],
      "type": "VEC2"
    },
    {
      "bufferView": 0,
      "byteOffset": 23700,
      "componentType": 5125,
      "count": 900,
      "type": "SCALAR"
    },
    {
      "bufferView": 2,
      "byteOffset": 45936,
      "componentType": 5126,
      "count": 121,
      "max": [
        5.964670181274414,
        5.984592437744141,
        -1.1001466512680054
      ],
      "min": [
        1.6683673858642578,
        4.8664469718933105,
        -5.3987298011779785
      ],
      "type": "VEC3"
    },
    {
      "bufferView": 2,
      "byteOffset": 47388,
      "componentType": 5126,
      "count": 121,
      "max": [
        0.9900733232498169,
        0.9999992847442627,
        0.9872339367866516
      ],
      "min": [
        -0.9894818663597107,
        -0.0829702615737915,
        -0.987270712852478
      ],
      "type": "VEC3"
    },
    {
      "bufferView": 1,
      "byteOffset": 15312,
      "componentType": 5126,
      "count": 121,
      "max": [
        0.9283868670463562,
        0.7488192319869995
      ],
      "min": [
        0.619281530380249,
        0.4460724890232086
      ],
      "type": "VEC2"
    },
    {
      "bufferView": 0,
      "byteOffset": 27300,
      "componentType": 5125,
      "count": 660,
      "type": "SCALAR"
    },
    {
      "bufferView": 2,
      "byteOffset": 48840,
      "componentType": 5126,
      "count": 521,
      "max": [
        -0.8408887386322021,
        3.61590576171875,
        -0.9591474533081055
      ],
      "min": [
        -4.707708358764648,
        0.13016532361507416,
        -4.827948093414307
      ],
      "type": "VEC3"
    },
    {
      "bufferView": 2,
      "byteOffset": 55092,
      "componentType": 5126,
      "count": 521,
      "max": [
        0.9813486337661743,
        0.9999997615814209,
        0.9961270093917847
      ],
      "min": [
        -0.9814861416816711,
        -1.0,
        -0.9958242177963257
      ],
      "type": "VEC3"
    },
    {
      "bufferView": 1,
      "byteOffset": 16280,
      "componentType": 5126,
      "count": 521,
      "max": [
        1.0000009536743164,
        0.9748956561088562
      ],
      "min": [
        1.341104507446289e-07,
        -5.960464477539063e-08
      ],
      "type": "VEC2"
    },
    {
      "bufferView": 0,
      "byteOffset": 29940,
      "componentType": 5125,
      "count": 2280,
      "type": "SCALAR"
    },
    {
      "bufferView": 2,
      "byteOffset": 61344,
      "componentType": 5126,
      "count": 77,
      "max": [
        4.453226089477539,
        6.662156105041504,
        -2.671229839324951
      ],
      "min": [
        3.227172374725342,
        5.54560661315918,
        -3.8485283851623535
      ],
      "type": "VEC3"
    },
    {
      "bufferView": 2,
      "byteOffset": 62268,
      "componentType": 5126,
      "count": 77,
      "max": [
        0.9882267117500305,
        0.99208664894104,
        0.9992734789848328
      ],
      "min": [
        -0.9592264890670776,
        -0.4418128728866577,
        -0.9912376403808594
      ],
      "type": "VEC3"
    },
    {
      "bufferView": 1,
      "byteOffset": 20448,
      "componentType": 5126,
      "count": 77,
      "max": [
        0.9993332624435425,
        0.41177383065223694
      ],
      "min": [
        0.619281530380249,
        0.0
      ],
      "type": "VEC2"
    },
    {
      "bufferView": 0,
      "byteOffset": 39060,
      "componentType": 5125,
      "count": 306,
      "type": "SCALAR"
    },
    {
      "bufferView": 2,
      "byteOffset": 63192,
      "componentType": 5126,
      "count": 1142,
      "max": [
        -4.656579494476318,
        7.174348831176758,
        -2.7918756008148193
      ],
      "min": [
        -7.534430027008057,
        0.10666918754577637,
        -5.6594929695129395
      ],
      "type": "VEC3"
    },
    {
      "bufferView": 2,
      "byteOffset": 76896,
      "componentType": 5126,
      "count": 1142,
      "max": [
        0.9946507811546326,
        0.9997004866600037,
        0.9905440211296082
      ],
      "min": [
        -0.9951406717300415,
        -1.0,
        -0.9899255037307739
      ],
      "type": "VEC3"
    },
    {
      "bufferView": 1,
      "byteOffset": 21064,
      "componentType": 5126,
      "count": 1142,
      "max": [
        1.0,
        0.9965212345123291
      ],
      "min": [
        0.0,
        0.0
      ],
      "type": "VEC2"
    },
    {
      "bufferView": 0,
      "byteOffset": 40284,
      "componentType": 5125,
      "count": 5964,
      "type": "SCALAR"
    },
    {
      "bufferView": 2,
      "byteOffset": 90600,
      "componentType": 5126,
      "count": 124,
      "max": [
        6.227750778198242,
        1.0826412439346313,
        8.331491470336914
      ],
      "min": [
        -2.3174843788146973,
        0.07799176871776581,
        0.21223807334899902
      ],
      "type": "VEC3"
    },
    {
      "bufferView": 2,
      "byteOffset": 92088,
      "componentType": 5126,
      "count": 124,
      "max": [
        0.37604907155036926,
        0.9997419714927673,
        0.3071058690547943
      ],
      "min": [
        -0.3295314610004425,
        -0.999987781047821,
        -0.2901252210140228
      ],
      "type": "VEC3"
    },
    {
      "bufferView": 1,
      "byteOffset": 30200,
      "componentType": 5126,
      "count": 124,
      "max": [
        0.9918122291564941,
        1.0
      ],
      "min": [
        0.0,
        -1.4901161193847656e-08
      ],
      "type": "VEC2"
    },
    {
      "bufferView": 0,
      "byteOffset": 64140,
      "componentType": 5125,
      "count": 360,
      "type": "SCALAR"
    },
    {
      "bufferView": 2,
      "byteOffset": 93576,
      "componentType": 5126,
      "count": 280,
      "max": [
        -4.8121113777160645,
        2.5104880332946777,
        2.14453125
      ],
      "min": [
        -6.148773670196533,
        0.7085669636726379,
        1.0929988622665405
      ],
      "type": "VEC3"
    },
    {
      "bufferView": 2,
      "byteOffset": 96936,
      "componentType": 5126,
      "count": 280,
      "max": [
        0.9662355780601501,
        0.9999989867210388,
        0.9701635837554932
      ],
      "min": [
        -0.9818756580352783,
        -0.9996076822280884,
        -0.9824441075325012
      ],
      "type": "VEC3"
    },
    {
      "bufferView": 1,
      "byteOffset": 31192,
      "componentType": 5126,
      "count": 280,
      "max": [
        0.29005882143974304,
        0.9851473569869995
      ],
      "min": [
        0.0,
        0.27123838663101196
      ],
      "type": "VEC2"
    },
    {
      "bufferView": 0,
      "byteOffset": 65580,
      "componentType": 5125,
      "count": 1296,
      "type": "SCALAR"
    },
    {
      "bufferView": 2,
      "byteOffset": 100296,
      "componentType": 5126,
      "count": 11,
      "max": [
        -2.156543016433716,
        2.564901113510132,
        3.6429367065429688
      ],
      "min": [
        -4.9679646492004395,
        2.564901113510132,
        0.7081006765365601
      ],
      "type": "VEC3"
    },
    {
      "bufferView": 2,
      "byteOffset": 100428,
      "componentType": 5126,
      "count": 11,
      "max": [
        0.0,
        1.0,
        1.882771272221362e-07
      ],
      "min": [
        0.0,
        1.0,
        -1.8827707037871733e-07
      ],
      "type": "VEC3"
    },
    {
      "bufferView": 1,
      "byteOffset": 33432,
      "componentType": 5126,
      "count": 11,
      "max": [
        0.5627192854881287,
        1.0
      ],
      "min": [
        0.3043481409549713,
        0.7283338904380798
      ],
      "type": "VEC2"
    },
    {
      "bufferView": 0,
      "byteOffset": 70764,
      "componentType": 5125,
      "count": 30,
      "type": "SCALAR"
    },
    {
      "bufferView": 2,
      "byteOffset": 100560,
      "componentType": 5126,
      "count": 404,
      "max": [
        3.693667411804199,
        1.0501220226287842,
        8.402225494384766
      ],
      "min": [
        -1.9618364572525024,
        0.6825055480003357,
        5.524547576904297
      ],
      "type": "VEC3"
    },
    {
      "bufferView": 2,
      "byteOffset": 105408,
      "componentType": 5126,
      "count": 404,
      "max": [
        0.9958246350288391,
        0.9992908239364624,
        0.9917293787002563
      ],
      "min": [
        -0.9962597489356995,
        -0.9998044967651367,
        -0.9902523756027222
      ],
      "type": "VEC3"
    },
    {
      "bufferView": 1,
      "byteOffset": 33520,
      "componentType": 5126,
      "count": 404,
      "max": [
        1.0,
        0.42452961206436157
      ],
      "min": [
        0.0,
        -7.450580596923828e-09
      ],
      "type": "VEC2"
    },
    {
      "bufferView": 0,
      "byteOffset": 70884,
      "componentType": 5125,
      "count": 1728,
      "type": "SCALAR"
    },
    {
      "bufferView": 2,
      "byteOffset": 110256,
      "componentType": 5126,
      "count": 185,
      "max": [
        2.228393077850342,
        5.4554972648620605,
        -0.8798173666000366
      ],
      "min": [
        -0.17261385917663574,
        2.5349478721618652,
        -3.0199337005615234
      ],
      "type": "VEC3"
    },
    {
      "bufferView": 2,
      "byteOffset": 112476,
      "componentType": 5126,
      "count": 185,
      "max": [
        0.9745112657546997,
        0.9999955892562866,
        0.9987627863883972
      ],
      "min": [
        -0.9999657273292542,
        -0.938826322555542,
        -0.9804466962814331
      ],
      "type": "VEC3"
    },
    {
      "bufferView": 1,
      "byteOffset": 36752,
      "componentType": 5126,
      "count": 185,
      "max": [
        0.9813544154167175,
        0.9350756406784058
      ],
      "min": [
        0.5676746964454651,
        -1.4901161193847656e-08
      ],
      "type": "VEC2"
    },
    {
      "bufferView": 0,
      "byteOffset": 77796,
      "componentType": 5125,
      "count": 864,
      "type": "SCALAR"
    },
    {
      "bufferView": 2,
      "byteOffset": 114696,
      "componentType": 5126,
      "count": 390,
      "max": [
        8.190719604492188,
        4.9811482429504395,
        -4.120273113250732
      ],
      "min": [
        5.718537330627441,
        1.2096426486968994,
        -5.72714900970459
      ],
      "type": "VEC3"
    },
    {
      "bufferView": 2,
      "byteOffset": 119376,
      "componentType": 5126,
      "count": 390,
      "max": [
        0.9877835512161255,
        0.9986355900764465,
        0.9347131252288818
      ],
      "min": [
        -0.97328782081604,
        -0.9990948438644409,
        -0.9377467632293701
      ],
      "type": "VEC3"
    },
    {
      "bufferView": 1,
      "byteOffset": 38232,
      "componentType": 5126,
      "count": 390,
      "max": [
        1.0,
        0.9502866268157959
      ],
      "min": [
        0.012901699170470238,
        0.6197755336761475
      ],
      "type": "VEC2"
    },
    {
      "bufferView": 0,
      "byteOffset": 81252,
      "componentType": 5125,
      "count": 1824,
      "type": "SCALAR"
    },
    {
      "bufferView": 2,
      "byteOffset": 124056,
      "componentType": 5126,
      "count": 144,
      "max": [
        8.205756187438965,
        0.967572808265686,
        8.639470100402832
      ],
      "min": [
        -7.073172569274902,
        -4.651196761074061e-09,
        -6.639470100402832
      ],
      "type": "VEC3"
    },
    {
      "bufferView": 2,
      "byteOffset": 125784,
      "componentType": 5126,
      "count": 144,
      "max": [
        0.9999022483825684,
        1.0,
        0.9999159574508667
      ],
      "min": [
        -0.9999467730522156,
        -1.0,
        -0.999897837638855
      ],
      "type": "VEC3"
    },
    {
      "bufferView": 1,
      "byteOffset": 41352,
      "componentType": 5126,
      "count": 144,
      "max": [
        0.9922877550125122,
        1.0
      ],
      "min": [
        0.0,
        0.0
      ],
      "type": "VEC2"
    },
    {
      "bufferView": 0,
      "byteOffset": 88548,
      "componentType": 5125,
      "count": 492,
      "type": "SCALAR"
    },
    {
      "bufferView": 2,
      "byteOffset": 127512,
      "componentType": 5126,
      "count": 60,
      "max": [
        -4.390645503997803,
        11.452104568481445,
        -3.8109233379364014
      ],
      "min": [
        -6.43132209777832,
        4.65301513671875,
        -4.694726943969727
      ],
      "type": "VEC3"
    },
    {
      "bufferView": 2,
      "byteOffset": 128232,
      "componentType": 5126,
      "count": 60,
      "max": [
        0.55572110414505,
        0.5370481014251709,
        0.8599914312362671
      ],
      "min": [
        -0.9999927878379822,
        -0.48272156715393066,
        -0.8642536997795105
      ],
      "type": "VEC3"
    },
    {
      "bufferView": 1,
      "byteOffset": 42504,
      "componentType": 5126,
      "count": 60,
      "max": [
        1.0,
        0.22576969861984253
      ],
      "min": [
        0.0,
        0.0
      ],
      "type": "VEC2"
    },
    {
      "bufferView": 0,
      "byteOffset": 90516,
      "componentType": 5125,
      "count": 162,
      "type": "SCALAR"
    },
    {
      "bufferView": 2,
      "byteOffset": 128952,
      "componentType": 5126,
      "count": 60,
      "max": [
        -5.7361345291137695,
        9.456796646118164,
        -3.8503577709198
      ],
      "min": [
        -6.87272834777832,
        5.273162841796875,
        -5.224187850952148
      ],
      "type": "VEC3"
    },
    {
      "bufferView": 2,
      "byteOffset": 129672,
      "componentType": 5126,
      "count": 60,
      "max": [
        0.9597769379615784,
        0.6357338428497314,
        0.7658001184463501
      ],
      "min": [
        -0.7934099435806274,
        -0.755124568939209,
        -0.9449412226676941
      ],
      "type": "VEC3"
    },
    {
      "bufferView": 1,
      "byteOffset": 42984,
      "componentType": 5126,
      "count": 60,
      "max": [
        0.9187030792236328,
        0.3444518446922302
      ],
      "min": [
        0.010554581880569458,
        0.19798803329467773
      ],
      "type": "VEC2"
    },
    {
      "bufferView": 0,
      "byteOffset": 91164,
      "componentType": 5125,
      "count": 162,
      "type": "SCALAR"
    },
    {
      "bufferView": 2,
      "byteOffset": 130392,
      "componentType": 5126,
      "count": 33,
      "max": [
        -5.574086666107178,
        10.229320526123047,
        -3.809135675430298
      ],
      "min": [
        -7.855031967163086,
        8.994560241699219,
        -6.153990745544434
      ],
      "type": "VEC3"
    },
    {
      "bufferView": 2,
      "byteOffset": 130788,
      "componentType": 5126,
      "count": 33,
      "max": [
        0.7105109691619873,
        0.9923060536384583,
        0.6916399002075195
      ],
      "min": [
        -0.03504712134599686,
        0.5887084603309631,
        -0.0748070478439331
      ],
      "type": "VEC3"
    },
    {
      "bufferView": 1,
      "byteOffset": 43464,
      "componentType": 5126,
      "count": 33,
      "max": [
        1.0,
        1.0
      ],
      "min": [
        0.0,
        0.0
      ],
      "type": "VEC2"
    },
    {
      "bufferView": 1,
      "byteOffset": 43728,
      "componentType": 5126,
      "count": 33,
      "max": [
        1.0,
        1.0
      ],
      "min": [
        0.0,
        0.0
      ],
      "type": "VEC2"
    },
    {
      "bufferView": 0,
      "byteOffset": 91812,
      "componentType": 5125,
      "count": 168,
      "type": "SCALAR"
    },
    {
      "bufferView": 2,
      "byteOffset": 131184,
      "componentType": 5126,
      "count": 33,
      "max": [
        -2.8411874771118164,
        12.222017288208008,
        -2.319732666015625
      ],
      "min": [
        -6.334324836730957,
        11.282217979431152,
        -5.914038181304932
      ],
      "type": "VEC3"
    },
    {
      "bufferView": 2,
      "byteOffset": 131580,
      "componentType": 5126,
      "count": 33,
      "max": [
        0.15707238018512726,
        0.9927724003791809,
        0.5021240711212158
      ],
      "min": [
        -0.6298216581344604,
        0.7709296345710754,
        -0.30755913257598877
      ],
      "type": "VEC3"
    },
    {
      "bufferView": 1,
      "byteOffset": 43992,
      "componentType": 5126,
      "count": 33,
      "max": [
        1.0,
        0.9999997019767761
      ],
      "min": [
        0.0,
        0.0
      ],
      "type": "VEC2"
    },
    {
      "bufferView": 1,
      "byteOffset": 44256,
      "componentType": 5126,
      "count": 33,
      "max": [
        1.0,
        0.9999997019767761
      ],
      "min": [
        0.0,
        0.0
      ],
      "type": "VEC2"
    },
    {
      "bufferView": 0,
      "byteOffset": 92484,
      "componentType": 5125,
      "count": 168,
      "type": "SCALAR"
    },
    {
      "bufferView": 2,
      "byteOffset": 131976,
      "componentType": 5126,
      "count": 4,
      "max": [
        0.008931875228881836,
        0.0,
        0.40000003576278687
      ],
      "min": [
        -0.1607121229171753,
        0.0,
        0.09993551671504974
      ],
      "type": "VEC3"
    },
    {
      "bufferView": 2,
      "byteOffset": 132024,
      "componentType": 5126,
      "count": 4,
      "max": [
        0.0,
        1.0,
        0.0
      ],
      "min": [
        0.0,
        1.0,
        0.0
      ],
      "type": "VEC3"
    },
    {
      "bufferView": 1,
      "byteOffset": 44520,
      "componentType": 5126,
      "count": 4,
      "max": [
        0.5089319944381714,
        0.40006449818611145
      ],
      "min": [
        0.33928799629211426,
        0.10000000149011612
      ],
      "type": "VEC2"
    },
    {
      "bufferView": 1,
      "byteOffset": 44552,
      "componentType": 5126,
      "count": 4,
      "max": [
        0.5089319944381714,
        0.40006449818611145
      ],
      "min": [
        0.33928799629211426,
        0.10000000149011612
      ],
      "type": "VEC2"
    },
    {
      "bufferView": 0,
      "byteOffset": 93156,
      "componentType": 5125,
      "count": 6,
      "type": "SCALAR"
    },
    {
      "bufferView": 2,
      "byteOffset": 132072,
      "componentType": 5126,
      "count": 4,
      "max": [
        0.3677022457122803,
        0.0,
        0.4000000059604645
      ],
      "min": [
        0.17857587337493896,
        0.0,
        -0.20012898743152618
      ],
      "type": "VEC3"
    },
    {
      "bufferView": 2,
      "byteOffset": 132120,
      "componentType": 5126,
      "count": 4,
      "max": [
        0.0,
        1.0,
        0.0
      ],
      "min": [
        0.0,
        1.0,
        0.0
      ],
      "type": "VEC3"
    },
    {
      "bufferView": 1,
      "byteOffset": 44584,
      "componentType": 5126,
      "count": 4,
      "max": [
        0.8677022457122803,
        0.700128972530365
      ],
      "min": [
        0.6785759925842285,
        0.10000000149011612
      ],
      "type": "VEC2"
    },
    {
      "bufferView": 1,
      "byteOffset": 44616,
      "componentType": 5126,
      "count": 4,
      "max": [
        0.8677022457122803,
        0.700128972530365
      ],
      "min": [
        0.6785759925842285,
        0.10000000149011612
      ],
      "type": "VEC2"
    },
    {
      "bufferView": 0,
      "byteOffset": 93180,
      "componentType": 5125,
      "count": 6,
      "type": "SCALAR"
    },
    {
      "bufferView": 2,
      "byteOffset": 132168,
      "componentType": 5126,
      "count": 6,
      "max": [
        -0.20774292945861816,
        0.0,
        0.44671857357025146
      ],
      "min": [
        -0.40458250045776367,
        -0.05606354773044586,
        0.026803985238075256
      ],
      "type": "VEC3"
    },
    {
      "bufferView": 2,
      "byteOffset": 132240,
      "componentType": 5126,
      "count": 6,
      "max": [
        0.4949648976325989,
        1.0,
        0.0
      ],
      "min": [
        -0.4949648976325989,
        0.8689131140708923,
        0.0
      ],
      "type": "VEC3"
    },
    {
      "bufferView": 1,
      "byteOffset": 44648,
      "componentType": 5126,
      "count": 6,
      "max": [
        0.29225701093673706,
        0.47319599986076355
      ],
      "min": [
        0.09541752189397812,
        0.05328139662742615
      ],
      "type": "VEC2"
    },
    {
      "bufferView": 1,
      "byteOffset": 44696,
      "componentType": 5126,
      "count": 6,
      "max": [
        0.29225701093673706,
        0.47319599986076355
      ],
      "min": [
        0.09541752189397812,
        0.05328139662742615
      ],
      "type": "VEC2"
    },
    {
      "bufferView": 0,
      "byteOffset": 93204,
      "componentType": 5125,
      "count": 12,
      "type": "SCALAR"
    },
    {
      "bufferView": 2,
      "byteOffset": 132312,
      "componentType": 5126,
      "count": 6,
      "max": [
        0.21276891231536865,
        0.0,
        0.44671857357025146
      ],
      "min": [
        0.011881470680236816,
        -0.05606354773044586,
        0.026803985238075256
      ],
      "type": "VEC3"
    },
    {
      "bufferView": 2,
      "byteOffset": 132384,
      "componentType": 5126,
      "count": 6,
      "max": [
        0.4873789846897125,
        1.0,
        0.0
      ],
      "min": [
        -0.4873790442943573,
        0.8731905817985535,
        0.0
      ],
      "type": "VEC3"
    },
    {
      "bufferView": 1,
      "byteOffset": 44744,
      "componentType": 5126,
      "count": 6,
      "max": [
        0.7127689719200134,
        0.47319599986076355
      ],
      "min": [
        0.5118814706802368,
        0.05328139662742615
      ],
      "type": "VEC2"
    },
    {
      "bufferView": 1,
      "byteOffset": 44792,
      "componentType": 5126,
      "count": 6,
      "max": [
        0.7127689719200134,
        0.47319599986076355
      ],
      "min": [
        0.5118814706802368,
        0.05328139662742615
      ],
      "type": "VEC2"
    },
    {
      "bufferView": 0,
      "byteOffset": 93252,
      "componentType": 5125,
      "count": 12,
      "type": "SCALAR"
    },
    {
      "bufferView": 2,
      "byteOffset": 132456,
      "componentType": 5126,
      "count": 6,
      "max": [
        -0.20774292945861816,
        0.0,
        -0.037296466529369354
      ],
      "min": [
        -0.40458250045776367,
        -0.0441339910030365,
        -0.45478183031082153
      ],
      "type": "VEC3"
    },
    {
      "bufferView": 2,
      "byteOffset": 132528,
      "componentType": 5126,
      "count": 6,
      "max": [
        0.4091700315475464,
        1.0,
        0.0
      ],
      "min": [
        -0.4091700315475464,
        0.9124582409858704,
        0.0
      ],
      "type": "VEC3"
    },
    {
      "bufferView": 1,
      "byteOffset": 44840,
      "componentType": 5126,
      "count": 6,
      "max": [
        0.29225701093673706,
        0.9547818303108215
      ],
      "min": [
        0.09541752934455872,
        0.53729647397995
      ],
      "type": "VEC2"
    },
    {
      "bufferView": 1,
      "byteOffset": 44888,
      "componentType": 5126,
      "count": 6,
      "max": [
        0.29225701093673706,
        0.9547818303108215
      ],
      "min": [
        0.09541752934455872,
        0.53729647397995
      ],
      "type": "VEC2"
    },
    {
      "bufferView": 0,
      "byteOffset": 93300,
      "componentType": 5125,
      "count": 12,
      "type": "SCALAR"
    },
    {
      "bufferView": 2,
      "byteOffset": 132600,
      "componentType": 5126,
      "count": 6,
      "max": [
        -0.20774292945861816,
        0.0,
        -0.03729647025465965
      ],
      "min": [
        -0.40458250045776367,
        -0.05606354773044586,
        -0.45478183031082153
      ],
      "type": "VEC3"
    },
    {
      "bufferView": 2,
      "byteOffset": 132672,
      "componentType": 5126,
      "count": 6,
      "max": [
        0.49496492743492126,
        1.0,
        0.0
      ],
      "min": [
        -0.49496492743492126,
        0.868912935256958,
        0.0
      ],
      "type": "VEC3"
    },
    {
      "bufferView": 1,
      "byteOffset": 44936,
      "componentType": 5126,
      "count": 6,
      "max": [
        0.29225701093673706,
        0.9547818303108215
      ],
      "min": [
        0.09541752934455872,
        0.53729647397995
      ],
      "type": "VEC2"
    },
    {
      "bufferView": 1,
      "byteOffset": 44984,
      "componentType": 5126,
      "count": 6,
      "max": [
        0.29225701093673706,
        0.9547818303108215
      ],
      "min": [
        0.09541752934455872,
        0.53729647397995
      ],
      "type": "VEC2"
    },
    {
      "bufferView": 0,
      "byteOffset": 93348,
      "componentType": 5125,
      "count": 12,
      "type": "SCALAR"
    },
    {
      "bufferView": 2,
      "byteOffset": 132744,
      "componentType": 5126,
      "count": 6,
      "max": [
        -0.20774292945861816,
        0.0,
        -0.03729647025465965
      ],
      "min": [
        -0.40458250045776367,
        -0.05606354773044586,
        -0.45478183031082153
      ],
      "type": "VEC3"
    },
    {
      "bufferView": 2,
      "byteOffset": 132816,
      "componentType": 5126,
      "count": 6,
      "max": [
        0.49496492743492126,
        1.0,
        0.0
      ],
      "min": [
        -0.49496492743492126,
        0.868912935256958,
        0.0
      ],
      "type": "VEC3"
    },
    {
      "bufferView": 1,
      "byteOffset": 45032,
      "componentType": 5126,
      "count": 6,
      "max": [
        0.29225701093673706,
        0.9547818303108215
      ],
      "min": [
        0.09541752934455872,
        0.53729647397995
      ],
      "type": "VEC2"
    },
    {
      "bufferView": 1,
      "byteOffset": 45080,
      "componentType": 5126,
      "count": 6,
      "max": [
        0.29225701093673706,
        0.9547818303108215
      ],
      "min": [
        0.09541752934455872,
        0.53729647397995
      ],
      "type": "VEC2"
    },
    {
      "bufferView": 0,
      "byteOffset": 93396,
      "componentType": 5125,
      "count": 12,
      "type": "SCALAR"
    },
    {
      "bufferView": 2,
      "byteOffset": 132888,
      "componentType": 5126,
      "count": 6,
      "max": [
        -0.20774292945861816,
        0.0,
        -0.03729647025465965
      ],
      "min": [
        -0.40458250045776367,
        -0.05606354773044586,
        -0.45478183031082153
      ],
      "type": "VEC3"
    },
    {
      "bufferView": 2,
      "byteOffset": 132960,
      "componentType": 5126,
      "count": 6,
      "max": [
        0.49496492743492126,
        1.0,
        0.0
      ],
      "min": [
        -0.49496492743492126,
        0.868912935256958,
        0.0
      ],
      "type": "VEC3"
    },
    {
      "bufferView": 1,
      "byteOffset": 45128,
      "componentType": 5126,
      "count": 6,
      "max": [
        0.29225701093673706,
        0.9547818303108215
      ],
      "min": [
        0.09541752934455872,
        0.53729647397995
      ],
      "type": "VEC2"
    },
    {
      "bufferView": 1,
      "byteOffset": 45176,
      "componentType": 5126,
      "count": 6,
      "max": [
        0.29225701093673706,
        0.9547818303108215
      ],
      "min": [
        0.09541752934455872,
        0.53729647397995
      ],
      "type": "VEC2"
    },
    {
      "bufferView": 0,
      "byteOffset": 93444,
      "componentType": 5125,
      "count": 12,
      "type": "SCALAR"
    },
    {
      "bufferView": 2,
      "byteOffset": 133032,
      "componentType": 5126,
      "count": 6,
      "max": [
        0.21276891231536865,
        0.0,
        -0.03729647025465965
      ],
      "min": [
        0.011881470680236816,
        -0.05606354773044586,
        -0.45478183031082153
      ],
      "type": "VEC3"
    },
    {
      "bufferView": 2,
      "byteOffset": 133104,
      "componentType": 5126,
      "count": 6,
      "max": [
        0.4873790442943573,
        1.0,
        0.0
      ],
      "min": [
        -0.48737892508506775,
        0.8731906414031982,
        0.0
      ],
      "type": "VEC3"
    },
    {
      "bufferView": 1,
      "byteOffset": 45224,
      "componentType": 5126,
      "count": 6,
      "max": [
        0.7127690315246582,
        0.9547818303108215
      ],
      "min": [
        0.5118814706802368,
        0.53729647397995
      ],
      "type": "VEC2"
    },
    {
      "bufferView": 1,
      "byteOffset": 45272,
      "componentType": 5126,
      "count": 6,
      "max": [
        0.7127690315246582,
        0.9547818303108215
      ],
      "min": [
        0.5118814706802368,
        0.53729647397995
      ],
      "type": "VEC2"
    },
    {
      "bufferView": 0,
      "byteOffset": 93492,
      "componentType": 5125,
      "count": 12,
      "type": "SCALAR"
    }
  ],
  "asset": {
    "extras": {
      "author": "arlettaleviani (https://sketchfab.com/arlettaleviani)",
      "license": "CC-BY-4.0 (http://creativecommons.org/licenses/by/4.0/)",
      "source": "https://sketchfab.com/3d-models/breakfast-picnic-398a8c59c8d6400d9179c7d1313ddd84",
      "title": "Breakfast & Picnic"
    },
    "generator": "Sketchfab-14.13.0",
    "version": "2.0"
  },
  "bufferViews": [
    {
      "buffer": 0,
      "byteLength": 93540,
      "name": "floatBufferViews",
      "target": 34963
    },
    {
      "buffer": 0,
      "byteLength": 45320,
      "byteOffset": 93540,
      "byteStride": 8,
      "name": "floatBufferViews",
      "target": 34962
    },
    {
      "buffer": 0,
      "byteLength": 133176,
      "byteOffset": 138860,
      "byteStride": 12,
      "name": "floatBufferViews",
      "target": 34962
    }
  ],
  "buffers": [
    {
      "byteLength": 272036,
      "uri": "scene.bin"
    }
  ],
  "extensionsUsed": [
    "KHR_materials_unlit"
  ],
  "images": [
    {
      "uri": "textures/material_baseColor.png"
    },
    {
      "uri": "textures/TeaPot_baseColor.png"
    },
    {
      "uri": "textures/wood_baseColor.png"
    },
    {
      "uri": "textures/Croissant_baseColor.png"
    },
    {
      "uri": "textures/material_4_baseColor.png"
    },
    {
      "uri": "textures/material_5_baseColor.png"
    },
    {
      "uri": "textures/Plate_baseColor.png"
    },
    {
      "uri": "textures/Knive_baseColor.png"
    },
    {
      "uri": "textures/material_8_baseColor.png"
    },
    {
      "uri": "textures/Stem_baseColor.png"
    },
    {
      "uri": "textures/Flower_baseColor.png"
    },
    {
      "uri": "textures/Smoke_baseColor.png"
    },
    {
      "uri": "textures/Leaf_baseColor.png"
    }
  ],
  "materials": [
    {
      "doubleSided": true,
      "extensions": {
        "KHR_materials_unlit": {}
      },
      "name": "material",
      "pbrMetallicRoughness": {
        "baseColorTexture": {
          "index": 0
        },
        "metallicFactor": 0.0
      }
    },
    {
      "doubleSided": true,
      "extensions": {
        "KHR_materials_unlit": {}
      },
      "name": "TeaPot",
      "pbrMetallicRoughness": {
        "baseColorTexture": {
          "index": 1
        },
        "metallicFactor": 0.0
      }
    },
    {
      "doubleSided": true,
      "extensions": {
        "KHR_materials_unlit": {}
      },
      "name": "wood",
      "pbrMetallicRoughness": {
        "baseColorTexture": {
          "index": 2
        },
        "metallicFactor": 0.0
      }
    },
    {
      "doubleSided": true,
      "extensions": {
        "KHR_materials_unlit": {}
      },
      "name": "Croissant",
      "pbrMetallicRoughness": {
        "baseColorTexture": {
          "index": 3
        },
        "metallicFactor": 0.0
      }
    },
    {
      "doubleSided": true,
      "extensions": {
        "KHR_materials_unlit": {}
      },
      "name": "material_4",
      "pbrMetallicRoughness": {
        "baseColorTexture": {
          "index": 4
        },
        "metallicFactor": 0.0
      }
    },
    {
      "doubleSided": true,
      "extensions": {
        "KHR_materials_unlit": {}
      },
      "name": "material_5",
      "pbrMetallicRoughness": {
        "baseColorTexture": {
          "index": 5
        },
        "metallicFactor": 0.0
      }
    },
    {
      "doubleSided": true,
      "extensions": {
        "KHR_materials_unlit": {}
      },
      "name": "Plate",
      "pbrMetallicRoughness": {
        "baseColorTexture": {
          "index": 6
        },
        "metallicFactor": 0.0
      }
    },
    {
      "doubleSided": true,
      "extensions": {
        "KHR_materials_unlit": {}
      },
      "name": "Knive",
      "pbrMetallicRoughness": {
        "baseColorTexture": {
          "index": 7
        },
        "metallicFactor": 0.0
      }
    },
    {
      "doubleSided": true,
      "extensions": {
        "KHR_materials_unlit": {}
      },
      "name": "material_8",
      "pbrMetallicRoughness": {
        "baseColorTexture": {
          "index": 8
        },
        "metallicFactor": 0.0
      }
    },
    {
      "doubleSided": true,
      "extensions": {
        "KHR_materials_unlit": {}
      },
      "name": "Stem",
      "pbrMetallicRoughness": {
        "baseColorTexture": {
          "index": 9
        },
        "metallicFactor": 0.0
      }
    },
    {
      "alphaMode": "BLEND",
      "doubleSided": true,
      "extensions": {
        "KHR_materials_unlit": {}
      },
      "name": "Flower",
      "pbrMetallicRoughness": {
        "baseColorTexture": {
          "index": 10
        },
        "metallicFactor": 0.0
      }
    },
    {
      "alphaMode": "BLEND",
      "doubleSided": true,
      "extensions": {
        "KHR_materials_unlit": {}
      },
      "name": "Smoke",
      "pbrMetallicRoughness": {
        "baseColorTexture": {
          "index": 11
        },
        "metallicFactor": 0.0
      }
    },
    {
      "alphaMode": "BLEND",
      "doubleSided": true,
      "extensions": {
        "KHR_materials_unlit": {}
      },
      "name": "Leaf",
      "pbrMetallicRoughness": {
        "baseColorTexture": {
          "index": 12
        },
        "metallicFactor": 0.0
      }
    }
  ],
  "meshes": [
    {
      "name": "polySurface3_Jar_0",
      "primitives": [
        {
          "attributes": {
            "NORMAL": 1,
            "POSITION": 0,
            "TEXCOORD_0": 2
          },
          "indices": 3,
          "material": 0,
          "mode": 4
        }
      ]
    },
    {
      "name": "pCylinder5_TeaPot_0",
      "primitives": [
        {
          "attributes": {
            "NORMAL": 5,
            "POSITION": 4,
            "TEXCOORD_0": 6
          },
          "indices": 7,
          "material": 1,
          "mode": 4
        }
      ]
    },
    {
      "name": "pPlane8_wood_0",
      "primitives": [
        {
          "attributes": {
            "NORMAL": 9,
            "POSITION": 8,
            "TEXCOORD_0": 10
          },
          "indices": 11,
          "material": 2,
          "mode": 4
        }
      ]
    },
    {
      "name": "pCylinder23_Croissant_0",
      "primitives": [
        {
          "attributes": {
            "NORMAL": 13,
            "POSITION": 12,
            "TEXCOORD_0": 14
          },
          "indices": 15,
          "material": 3,
          "mode": 4
        }
      ]
    },
    {
      "name": "pCylinder14_Mug_0",
      "primitives": [
        {
          "attributes": {
            "NORMAL": 17,
            "POSITION": 16,
            "TEXCOORD_0": 18
          },
          "indices": 19,
          "material": 4,
          "mode": 4
        }
      ]
    },
    {
      "name": "pTorus1_Jam_0",
      "primitives": [
        {
          "attributes": {
            "NORMAL": 21,
            "POSITION": 20,
            "TEXCOORD_0": 22
          },
          "indices": 23,
          "material": 5,
          "mode": 4
        }
      ]
    },
    {
      "name": "pPlane2_Mug_0",
      "primitives": [
        {
          "attributes": {
            "NORMAL": 25,
            "POSITION": 24,
            "TEXCOORD_0": 26
          },
          "indices": 27,
          "material": 4,
          "mode": 4
        }
      ]
    },
    {
      "name": "pCylinder8_TeaPot_0",
      "primitives": [
        {
          "attributes": {
            "NORMAL": 29,
            "POSITION": 28,
            "TEXCOORD_0": 30
          },
          "indices": 31,
          "material": 1,
          "mode": 4
        }
      ]
    },
    {
      "name": "pCylinder11_Jam_0",
      "primitives": [
        {
          "attributes": {
            "NORMAL": 33,
            "POSITION": 32,
            "TEXCOORD_0": 34
          },
          "indices": 35,
          "material": 5,
          "mode": 4
        }
      ]
    },
    {
      "name": "pCylinder9_TeaPot_0",
      "primitives": [
        {
          "attributes": {
            "NORMAL": 37,
            "POSITION": 36,
            "TEXCOORD_0": 38
          },
          "indices": 39,
          "material": 1,
          "mode": 4
        }
      ]
    },
    {
      "name": "polySurface5_Jar_0",
      "primitives": [
        {
          "attributes": {
            "NORMAL": 41,
            "POSITION": 40,
            "TEXCOORD_0": 42
          },
          "indices": 43,
          "material": 0,
          "mode": 4
        }
      ]
    },
    {
      "name": "pCylinder13_Plate_0",
      "primitives": [
        {
          "attributes": {
            "NORMAL": 45,
            "POSITION": 44,
            "TEXCOORD_0": 46
          },
          "indices": 47,
          "material": 6,
          "mode": 4
        }
      ]
    },
    {
      "name": "pCylinder15_Mug_0",
      "primitives": [
        {
          "attributes": {
            "NORMAL": 49,
            "POSITION": 48,
            "TEXCOORD_0": 50
          },
          "indices": 51,
          "material": 4,
          "mode": 4
        }
      ]
    },
    {
      "name": "pCylinder16_Mug_0",
      "primitives": [
        {
          "attributes": {
            "NORMAL": 53,
            "POSITION": 52,
            "TEXCOORD_0": 54
          },
          "indices": 55,
          "material": 4,
          "mode": 4
        }
      ]
    },
    {
      "name": "pPlane4_Knive_0",
      "primitives": [
        {
          "attributes": {
            "NORMAL": 57,
            "POSITION": 56,
            "TEXCOORD_0": 58
          },
          "indices": 59,
          "material": 7,
          "mode": 4
        }
      ]
    },
    {
      "name": "pCylinder7_TeaPot_0",
      "primitives": [
        {
          "attributes": {
            "NORMAL": 61,
            "POSITION": 60,
            "TEXCOORD_0": 62
          },
          "indices": 63,
          "material": 1,
          "mode": 4
        }
      ]
    },
    {
      "name": "pCylinder6_TeaPot_0",
      "primitives": [
        {
          "attributes": {
            "NORMAL": 65,
            "POSITION": 64,
            "TEXCOORD_0": 66
          },
          "indices": 67,
          "material": 1,
          "mode": 4
        }
      ]
    },
    {
      "name": "pPlane3_Mat_0",
      "primitives": [
        {
          "attributes": {
            "NORMAL": 69,
            "POSITION": 68,
            "TEXCOORD_0": 70
          },
          "indices": 71,
          "material": 8,
          "mode": 4
        }
      ]
    },
    {
      "name": "pCylinder30_Stem_0",
      "primitives": [
        {
          "attributes": {
            "NORMAL": 73,
            "POSITION": 72,
            "TEXCOORD_0": 74
          },
          "indices": 75,
          "material": 9,
          "mode": 4
        }
      ]
    },
    {
      "name": "pCylinder31_Stem_0",
      "primitives": [
        {
          "attributes": {
            "NORMAL": 77,
            "POSITION": 76,
            "TEXCOORD_0": 78
          },
          "indices": 79,
          "material": 9,
          "mode": 4
        }
      ]
    },
    {
      "name": "pCylinder32_Flower_0",
      "primitives": [
        {
          "attributes": {
            "NORMAL": 81,
            "POSITION": 80,
            "TEXCOORD_0": 82,
            "TEXCOORD_1": 83
          },
          "indices": 84,
          "material": 10,
          "mode": 4
        }
      ]
    },
    {
      "name": "pCylinder33_Flower_0",
      "primitives": [
        {
          "attributes": {
            "NORMAL": 86,
            "POSITION": 85,
            "TEXCOORD_0": 87,
            "TEXCOORD_1": 88
          },
          "indices": 89,
          "material": 10,
          "mode": 4
        }
      ]
    },
    {
      "name": "polySurface9_Smoke_0",
      "primitives": [
        {
          "attributes": {
            "NORMAL": 91,
            "POSITION": 90,
            "TEXCOORD_0": 92,
            "TEXCOORD_1": 93
          },
          "indices": 94,
          "material": 11,
          "mode": 4
        }
      ]
    },
    {
      "name": "polySurface7_Smoke_0",
      "primitives": [
        {
          "attributes": {
            "NORMAL": 96,
            "POSITION": 95,
            "TEXCOORD_0": 97,
            "TEXCOORD_1": 98
          },
          "indices": 99,
          "material": 11,
          "mode": 4
        }
      ]
    },
    {
      "name": "polySurface25_Leaf_0",
      "primitives": [
        {
          "attributes": {
            "NORMAL": 101,
            "POSITION": 100,
            "TEXCOORD_0": 102,
            "TEXCOORD_1": 103
          },
          "indices": 104,
          "material": 12,
          "mode": 4
        }
      ]
    },
    {
      "name": "polySurface28_Leaf_0",
      "primitives": [
        {
          "attributes": {
            "NORMAL": 106,
            "POSITION": 105,
            "TEXCOORD_0": 107,
            "TEXCOORD_1": 108
          },
          "indices": 109,
          "material": 12,
          "mode": 4
        }
      ]
    },
    {
      "name": "polySurface23_Leaf_0",
      "primitives": [
        {
          "attributes": {
            "NORMAL": 111,
            "POSITION": 110,
            "TEXCOORD_0": 112,
            "TEXCOORD_1": 113
          },
          "indices": 114,
          "material": 12,
          "mode": 4
        }
      ]
    },
    {
      "name": "polySurface31_Leaf_0",
      "primitives": [
        {
          "attributes": {
            "NORMAL": 116,
            "POSITION": 115,
            "TEXCOORD_0": 117,
            "TEXCOORD_1": 118
          },
          "indices": 119,
          "material": 12,
          "mode": 4
        }
      ]
    },
    {
      "name": "polySurface32_Leaf_0",
      "primitives": [
        {
          "attributes": {
            "NORMAL": 121,
            "POSITION": 120,
            "TEXCOORD_0": 122,
            "TEXCOORD_1": 123
          },
          "indices": 124,
          "material": 12,
          "mode": 4
        }
      ]
    },
    {
      "name": "polySurface33_Leaf_0",
      "primitives": [
        {
          "attributes": {
            "NORMAL": 126,
            "POSITION": 125,
            "TEXCOORD_0": 127,
            "TEXCOORD_1": 128
          },
          "indices": 129,
          "material": 12,
          "mode": 4
        }
      ]
    },
    {
      "name": "polySurface27_Leaf_0",
      "primitives": [
        {
          "attributes": {
            "NORMAL": 131,
            "POSITION": 130,
            "TEXCOORD_0": 132,
            "TEXCOORD_1": 133
          },
          "indices": 134,
          "material": 12,
          "mode": 4
        }
      ]
    }
  ],
  "nodes": [
    {
      "children": [
        1
      ],
      "matrix": [
        1.0,
        0.0,
        0.0,
        0.0,
        0.0,
        2.220446049250313e-16,
        -1.0,
        0.0,
        0.0,
        1.0,
        2.220446049250313e-16,
        0.0,
        0.0,
        0.0,
        0.0,
        1.0
      ],
      "name": "Sketchfab_model"
    },
    {
      "children": [
        2
      ],
      "matrix": [
        0.009999999776482582,
        0.0,
        0.0,
        0.0,
        0.0,
        0.0,
        0.009999999776482582,
        0.0,
        0.0,
        -0.009999999776482582,
        0.0,
        0.0,
        0.0,
        0.0,
        0.0,
        1.0
      ],
      "name": "picnic Final LP.fbx"
    },
    {
      "children": [
        3,
        39,
        50,
        56
      ],
      "name": "RootNode"
    },
    {
      "children": [
        4
      ],
      "name": "group5"
    },
    {
      "children": [
        5,
        7,
        9,
        11,
        13,
        15,
        17,
        19,
        21,
        23,
        25,
        27,
        29,
        31,
        33,
        35,
        37
      ],
      "name": "group9"
    },
    {
      "children": [
        6
      ],
      "name": "polySurface3"
    },
    {
      "mesh": 0,
      "name": "polySurface3_Jar_0"
    },
    {
      "children": [
        8
      ],
      "name": "pCylinder5"
    },
    {
      "mesh": 1,
      "name": "pCylinder5_TeaPot_0"
    },
    {
      "children": [
        10
      ],
      "name": "pPlane8"
    },
    {
      "mesh": 2,
      "name": "pPlane8_wood_0"
    },
    {
      "children": [
        12
      ],
      "name": "pCylinder23"
    },
    {
      "mesh": 3,
      "name": "pCylinder23_Croissant_0"
    },
    {
      "children": [
        14
      ],
      "name": "pCylinder14"
    },
    {
      "mesh": 4,
      "name": "pCylinder14_Mug_0"
    },
    {
      "children": [
        16
      ],
      "name": "pTorus1"
    },
    {
      "mesh": 5,
      "name": "pTorus1_Jam_0"
    },
    {
      "children": [
        18
      ],
      "name": "pPlane2"
    },
    {
      "mesh": 6,
      "name": "pPlane2_Mug_0"
    },
    {
      "children": [
        20
      ],
      "name": "pCylinder8"
    },
    {
      "mesh": 7,
      "name": "pCylinder8_TeaPot_0"
    },
    {
      "children": [
        22
      ],
      "name": "pCylinder11"
    },
    {
      "mesh": 8,
      "name": "pCylinder11_Jam_0"
    },
    {
      "children": [
        24
      ],
      "name": "pCylinder9"
    },
    {
      "mesh": 9,
      "name": "pCylinder9_TeaPot_0"
    },
    {
      "children": [
        26
      ],
      "name": "polySurface5"
    },
    {
      "mesh": 10,
      "name": "polySurface5_Jar_0"
    },
    {
      "children": [
        28
      ],
      "name": "pCylinder13"
    },
    {
      "mesh": 11,
      "name": "pCylinder13_Plate_0"
    },
    {
      "children": [
        30
      ],
      "name": "pCylinder15"
    },
    {
      "mesh": 12,
      "name": "pCylinder15_Mug_0"
    },
    {
      "children": [
        32
      ],
      "name": "pCylinder16"
    },
    {
      "mesh": 13,
      "name": "pCylinder16_Mug_0"
    },
    {
      "children": [
        34
      ],
      "name": "pPlane4"
    },
    {
      "mesh": 14,
      "name": "pPlane4_Knive_0"
    },
    {
      "children": [
        36
      ],
      "name": "pCylinder7"
    },
    {
      "mesh": 15,
      "name": "pCylinder7_TeaPot_0"
    },
    {
      "children": [
        38
      ],
      "name": "pCylinder6"
    },
    {
      "mesh": 16,
      "name": "pCylinder6_TeaPot_0"
    },
    {
      "children": [
        40,
        42,
        44,
        46,
        48
      ],
      "matrix": [
        1.0,
        0.0,
        0.0,
        0.0,
        0.0,
        1.0,
        0.0,
        0.0,
        0.0,
        0.0,
        1.0,
        0.0,
        30.758342742919922,
        0.0,
        0.0,
        1.0
      ],
      "name": "group8"
    },
    {
      "children": [
        41
      ],
      "matrix": [
        1.0,
        0.0,
        0.0,
        0.0,
        0.0,
        1.0,
        0.0,
        0.0,
        0.0,
        0.0,
        1.0,
        0.0,
        -30.764951705932617,
        0.0,
        0.0,
        1.0
      ],
      "name": "pPlane3"
    },
    {
      "mesh": 17,
      "name": "pPlane3_Mat_0"
    },
    {
      "children": [
        43
      ],
      "matrix": [
        0.5822764039039612,
        0.0,
        0.0,
        0.0,
        0.0,
        0.6976996064186096,
        0.0,
        0.0,
        0.0,
        0.0,
        0.5822764039039612,
        0.0,
        -33.022361755371094,
        2.5975258350372314,
        -1.6561614274978638,
        1.0
      ],
      "name": "pCylinder30"
    },
    {
      "mesh": 18,
      "name": "pCylinder30_Stem_0"
    },
    {
      "children": [
        45
      ],
      "matrix": [
        0.5822764039039612,
        0.0,
        0.0,
        0.0,
        0.0,
        0.6976996064186096,
        0.0,
        0.0,
        0.0,
        0.0,
        0.5822764039039612,
        0.0,
        -33.428382873535156,
        2.3899471759796143,
        -1.7705715894699097,
        1.0
      ],
      "name": "pCylinder31"
    },
    {
      "mesh": 19,
      "name": "pCylinder31_Stem_0"
    },
    {
      "children": [
        47
      ],
      "matrix": [
        0.9354103905526902,
        0.4241824181940736,
        0.0,
        0.0,
        -0.4241824181940736,
        0.9354103905526902,
        0.0,
        0.0,
        0.0,
        0.0,
        1.0270946025848389,
        0.0,
        -26.99852752685547,
        3.034412384033203,
        0.45426031947135925,
        1.0
      ],
      "name": "pCylinder32"
    },
    {
      "mesh": 20,
      "name": "pCylinder32_Flower_0"
    },
    {
      "children": [
        49
      ],
      "matrix": [
        0.989655613899231,
        0.0,
        0.0,
        0.0,
        0.0,
        0.960892609259965,
        0.23686204337512562,
        0.0,
        0.0,
        -0.23686204337512562,
        0.960892609259965,
        0.0,
        -31.17481231689453,
        -1.3308249711990356,
        -2.8469879627227783,
        1.0
      ],
      "name": "pCylinder33"
    },
    {
      "mesh": 21,
      "name": "pCylinder33_Flower_0"
    },
    {
      "children": [
        51,
        54
      ],
      "matrix": [
        16.577817916870117,
        0.0,
        0.0,
        0.0,
        0.0,
        16.577817916870117,
        0.0,
        0.0,
        0.0,
        0.0,
        16.577817916870117,
        0.0,
        -23.556440353393555,
        0.0,
        0.0,
        1.0
      ],
      "name": "pPlane27"
    },
    {
      "children": [
        52
      ],
      "name": "polySurface6"
    },
    {
      "children": [
        53
      ],
      "matrix": [
        0.862589418888092,
        0.0,
        0.0,
        0.0,
        0.0,
        1.9153332672951874e-16,
        0.862589418888092,
        0.0,
        0.0,
        -0.862589418888092,
        1.9153332672951874e-16,
        0.0,
        1.2706414461135864,
        0.45559799671173096,
        0.12064314633607864,
        1.0
      ],
      "name": "polySurface9"
    },
    {
      "mesh": 22,
      "name": "polySurface9_Smoke_0"
    },
    {
      "children": [
        55
      ],
      "matrix": [
        1.0,
        0.0,
        0.0,
        0.0,
        0.0,
        2.220446049250313e-16,
        1.0,
        0.0,
        0.0,
        -1.0,
        2.220446049250313e-16,
        0.0,
        1.1616109609603882,
        0.6931611895561218,
        -0.09623794257640839,
        1.0
      ],
      "name": "polySurface7"
    },
    {
      "mesh": 23,
      "name": "polySurface7_Smoke_0"
    },
    {
      "children": [
        57,
        60,
        63,
        72
      ],
      "matrix": [
        18.312870025634766,
        0.0,
        0.0,
        0.0,
        0.0,
        18.312870025634766,
        0.0,
        0.0,
        0.0,
        0.0,
        18.312870025634766,
        0.0,
        -29.443315505981445,
        0.0,
        0.0,
        1.0
      ],
      "name": "pPlane28"
    },
    {
      "children": [
        58
      ],
      "name": "polySurface11"
    },
    {
      "children": [
        59
      ],
      "matrix": [
        0.2250632773473594,
        -0.07358407388900849,
        0.05555997048223159,
        0.0,
        0.013031303250737685,
        0.17047195182730437,
        0.17298700481886048,
        0.0,
        -0.09127820871202952,
        -0.15709774909434598,
        0.16168979839259193,
        0.0,
        1.3623642921447754,
        0.46929922699928284,
        -0.2865578234195709,
        1.0
      ],
      "name": "polySurface25"
    },
    {
      "mesh": 24,
      "name": "polySurface25_Leaf_0"
    },
    {
      "children": [
        61
      ],
      "name": "polySurface12"
    },
    {
      "children": [
        62
      ],
      "matrix": [
        0.15992503024421545,
        0.047867098049962316,
        0.2794599166290727,
        0.0,
        -0.23212782371694995,
        0.2063404675301599,
        0.09749566294217324,
        0.0,
        -0.16280595054998942,
        -0.24717902775190403,
        0.1355059780297684,
        0.0,
        1.3329582214355469,
        0.5000796318054199,
        -0.3238106667995453,
        1.0
      ],
      "name": "polySurface28"
    },
    {
      "mesh": 25,
      "name": "polySurface28_Leaf_0"
    },
    {
      "children": [
        64,
        66,
        68,
        70
      ],
      "name": "polySurface13"
    },
    {
      "children": [
        65
      ],
      "matrix": [
        0.12260578735696842,
        0.11831585613866624,
        -0.20123695385066923,
        0.0,
        0.09822029847704929,
        0.18005920879372106,
        0.16570632697034413,
        0.0,
        0.21177281784025376,
        -0.15201043390865537,
        0.03965140740560318,
        0.0,
        1.2969698905944824,
        0.4726192057132721,
        -0.31024929881095886,
        1.0
      ],
      "name": "polySurface23"
    },
    {
      "mesh": 26,
      "name": "polySurface23_Leaf_0"
    },
    {
      "children": [
        67
      ],
      "matrix": [
        0.402308681222699,
        0.06061491801273781,
        0.19771668315930052,
        0.0,
        -0.16967820584317253,
        0.34398145276221453,
        0.23980074372234908,
        0.0,
        -0.11821743334655904,
        -0.2874385533331582,
        0.32866707559937675,
        0.0,
        1.4456490278244019,
        0.5482876300811768,
        -0.12305207550525665,
        1.0
      ],
      "name": "polySurface31"
    },
    {
      "mesh": 27,
      "name": "polySurface31_Leaf_0"
    },
    {
      "children": [
        69
      ],
      "matrix": [
        -0.008479797268428615,
        -0.1944429203442875,
        0.2888182835217408,
        0.0,
        -0.2653748394286841,
        0.19063119431487457,
        0.12054832841005265,
        0.0,
        -0.22538909637926077,
        -0.21713510911928277,
        -0.15280070926298303,
        0.0,
        1.2851386070251465,
        0.37123021483421326,
        -0.1526264250278473,
        1.0
      ],
      "name": "polySurface32"
    },
    {
      "mesh": 28,
      "name": "polySurface32_Leaf_0"
    },
    {
      "children": [
        71
      ],
      "matrix": [
        0.058973807281373365,
        -0.12450422653089094,
        0.43085858202319405,
        0.0,
        -0.2936526751116648,
        0.317741402419152,
        0.1320107482776571,
        0.0,
        -0.33898160204774513,
        -0.2969131671667804,
        -0.03940018665550996,
        0.0,
        1.3272560834884644,
        0.4775085151195526,
        -0.08332601934671402,
        1.0
      ],
      "name": "polySurface33"
    },
    {
      "mesh": 29,
      "name": "polySurface33_Leaf_0"
    },
    {
      "children": [
        73
      ],
      "name": "polySurface14"
    },
    {
      "children": [
        74
      ],
      "matrix": [
        0.12242265711231635,
        0.027992711199328273,
        -0.2381241924761748,
        0.0,
        0.13399453290288857,
        0.21373105753858648,
        0.09401345697682471,
        0.0,
        0.19882703054377704,
        -0.16127452700382527,
        0.08326084771364936,
        0.0,
        1.2795957326889038,
        0.3709503710269928,
        -0.18018212914466858,
        1.0
      ],
      "name": "polySurface27"
    },
    {
      "mesh": 30,
      "name": "polySurface27_Leaf_0"
    }
  ],
  "samplers": [
    {
      "magFilter": 9729,
      "minFilter": 9987,
      "wrapS": 10497,
      "wrapT": 10497
    }
  ],
  "scene": 0,
  "scenes": [
    {
      "name": "Sketchfab_Scene",
      "nodes": [
        0
      ]
    }
  ],
  "textures": [
    {
      "sampler": 0,
      "source": 0
    },
    {
      "sampler": 0,
      "source": 1
    },
    {
      "sampler": 0,
      "source": 2
    },
    {
      "sampler": 0,
      "source": 3
    },
    {
      "sampler": 0,
      "source": 4
    },
    {
      "sampler": 0,
      "source": 5
    },
    {
      "sampler": 0,
      "source": 6
    },
    {
      "sampler": 0,
      "source": 7
    },
    {
      "sampler": 0,
      "source": 8
    },
    {
      "sampler": 0,
      "source": 9
    },
    {
      "sampler": 0,
      "source": 10
    },
    {
      "sampler": 0,
      "source": 11
    },
    {
      "sampler": 0,
      "source": 12
    }
  ]
}
